# MagicaVoxel @ Ephtracy

# group
g Lowishbuilding1

# material
mtllib Lowishbuilding1.mtl
usemtl palette

# normals
vn -1 0 0
vn 1 0 0
vn 0 0 1
vn 0 0 -1
vn 0 -1 0
vn 0 1 0

# texcoords
vt 0.306641 0.5
vt 0.310547 0.5
vt 0.556641 0.5
vt 0.572266 0.5
vt 0.669922 0.5
vt 0.779297 0.5
vt 0.787109 0.5
vt 0.794922 0.5
vt 0.806641 0.5
vt 0.810547 0.5
vt 0.826172 0.5

# verts
v -14 26 11
v -14 26 -14
v -14 28 11
v -14 28 -14
v -13 0 10
v -13 0 -13
v -13 26 10
v -13 26 -13
v -13 28 10
v -13 28 -13
v -13 30 10
v -13 30 -13
v -9 9 -13
v -9 9 -14
v -9 11 -13
v -9 11 -14
v -9 17 -13
v -9 17 -14
v -9 19 -13
v -9 19 -14
v -9 28 5
v -9 28 2
v -9 29 5
v -9 29 2
v -9 31 5
v -9 31 4
v -9 31 3
v -9 31 2
v -9 32 5
v -9 32 4
v -9 32 3
v -9 32 2
v -9 33 5
v -9 33 4
v -9 33 3
v -9 33 2
v -9 34 5
v -9 34 4
v -9 34 3
v -9 34 2
v -8 29 4
v -8 29 3
v -8 31 4
v -8 31 3
v -6 1 -12
v -6 1 -13
v -6 8 -12
v -6 8 -13
v -6 10 -12
v -6 10 -13
v -6 11 -13
v -6 16 -12
v -6 16 -13
v -6 18 -12
v -6 18 -13
v -6 19 -13
v -6 24 -12
v -6 24 -13
v -4 28 -1
v -4 28 -4
v -4 29 -1
v -4 29 -4
v -4 31 -1
v -4 31 -2
v -4 31 -3
v -4 31 -4
v -4 32 -2
v -4 32 -3
v -4 32 -4
v -4 33 -1
v -4 33 -3
v -4 33 -4
v -4 34 -1
v -4 34 -3
v -4 34 -4
v -3 1 -13
v -3 1 -14
v -3 2 -13
v -3 2 -14
v -3 9 -13
v -3 9 -14
v -3 11 -13
v -3 11 -14
v -3 17 -13
v -3 17 -14
v -3 19 -13
v -3 19 -14
v -3 29 -2
v -3 29 -3
v -3 31 -2
v -3 31 -3
v 0 2 -12
v 0 2 -13
v 0 8 -12
v 0 8 -13
v 0 10 -12
v 0 10 -13
v 0 11 -13
v 0 16 -12
v 0 16 -13
v 0 18 -12
v 0 18 -13
v 0 19 -13
v 0 24 -12
v 0 24 -13
v 3 1 -13
v 3 1 -14
v 3 2 -13
v 3 2 -14
v 3 9 -13
v 3 9 -14
v 3 11 -13
v 3 11 -14
v 3 17 -13
v 3 17 -14
v 3 19 -13
v 3 19 -14
v 5 28 9
v 5 28 2
v 5 30 9
v 5 34 9
v 5 34 2
v 6 2 -12
v 6 2 -13
v 6 8 -12
v 6 8 -13
v 6 10 -12
v 6 10 -13
v 6 11 -13
v 6 16 -12
v 6 16 -13
v 6 18 -12
v 6 18 -13
v 6 19 -13
v 6 24 -12
v 6 24 -13
v 8 28 3
v 8 28 2
v 8 33 3
v 8 33 2
v 9 28 2
v 9 28 -12
v 9 30 2
v 9 30 -12
v -12 28 9
v -12 28 -12
v -12 30 9
v -12 30 -12
v -10 1 -12
v -10 1 -13
v -10 8 -12
v -10 8 -13
v -9 10 -12
v -9 10 -13
v -9 11 -13
v -9 16 -12
v -9 16 -13
v -9 18 -12
v -9 18 -13
v -9 19 -13
v -9 24 -12
v -9 24 -13
v -7 29 4
v -7 29 3
v -7 31 4
v -7 31 3
v -6 9 -13
v -6 9 -14
v -6 11 -13
v -6 11 -14
v -6 17 -13
v -6 17 -14
v -6 19 -13
v -6 19 -14
v -6 28 5
v -6 28 2
v -6 29 5
v -6 29 2
v -6 31 5
v -6 31 4
v -6 31 3
v -6 31 2
v -6 32 5
v -6 32 4
v -6 32 3
v -6 32 2
v -6 33 5
v -6 33 4
v -6 33 3
v -6 33 2
v -6 34 5
v -6 34 4
v -6 34 3
v -6 34 2
v -3 2 -12
v -3 2 -13
v -3 8 -12
v -3 8 -13
v -3 10 -12
v -3 10 -13
v -3 11 -13
v -3 16 -12
v -3 16 -13
v -3 18 -12
v -3 18 -13
v -3 19 -13
v -3 24 -12
v -3 24 -13
v -2 29 -2
v -2 29 -3
v -2 31 -2
v -2 31 -3
v -1 28 -1
v -1 28 -4
v -1 29 -1
v -1 29 -4
v -1 31 -1
v -1 31 -4
v -1 32 -2
v -1 32 -3
v -1 33 -1
v -1 33 -2
v -1 33 -3
v -1 33 -4
v -1 34 -1
v -1 34 -2
v -1 34 -3
v -1 34 -4
v 0 1 -13
v 0 1 -14
v 0 2 -13
v 0 2 -14
v 0 9 -13
v 0 9 -14
v 0 11 -13
v 0 11 -14
v 0 17 -13
v 0 17 -14
v 0 19 -13
v 0 19 -14
v 3 2 -12
v 3 2 -13
v 3 8 -12
v 3 8 -13
v 3 10 -12
v 3 10 -13
v 3 11 -13
v 3 16 -12
v 3 16 -13
v 3 18 -12
v 3 18 -13
v 3 19 -13
v 3 24 -12
v 3 24 -13
v 6 1 -13
v 6 1 -14
v 6 2 -13
v 6 2 -14
v 6 9 -13
v 6 9 -14
v 6 11 -13
v 6 11 -14
v 6 17 -13
v 6 17 -14
v 6 19 -13
v 6 19 -14
v 6 28 3
v 6 28 2
v 6 33 3
v 6 33 2
v 9 30 9
v 9 30 2
v 9 34 9
v 9 34 2
v 10 0 10
v 10 0 -13
v 10 26 10
v 10 26 -13
v 10 28 10
v 10 28 -13
v 10 30 10
v 10 30 -13
v 11 26 11
v 11 26 -14
v 11 28 11
v 11 28 -14
v -14 26 11
v -14 28 11
v 11 26 11
v 11 28 11
v -13 0 10
v -13 26 10
v -13 28 10
v -13 30 10
v 10 0 10
v 10 26 10
v 10 28 10
v 10 30 10
v 5 30 9
v 5 34 9
v 9 30 9
v 9 34 9
v -9 28 5
v -9 29 5
v -9 31 5
v -9 32 5
v -9 33 5
v -9 34 5
v -8 31 5
v -8 32 5
v -8 33 5
v -7 31 5
v -7 32 5
v -7 33 5
v -6 28 5
v -6 29 5
v -6 31 5
v -6 32 5
v -6 33 5
v -6 34 5
v -8 29 4
v -8 31 4
v -7 29 4
v -7 31 4
v -4 28 -1
v -4 29 -1
v -4 31 -1
v -4 33 -1
v -4 34 -1
v -3 31 -1
v -3 33 -1
v -3 34 -1
v -2 31 -1
v -2 33 -1
v -2 34 -1
v -1 28 -1
v -1 29 -1
v -1 31 -1
v -1 33 -1
v -1 34 -1
v -3 29 -2
v -3 31 -2
v -2 29 -2
v -2 31 -2
v -12 28 -12
v -12 30 -12
v 9 28 -12
v 9 30 -12
v -9 10 -13
v -9 11 -13
v -9 18 -13
v -9 19 -13
v -6 10 -13
v -6 11 -13
v -6 18 -13
v -6 19 -13
v -3 10 -13
v -3 11 -13
v -3 18 -13
v -3 19 -13
v 0 10 -13
v 0 11 -13
v 0 18 -13
v 0 19 -13
v 3 10 -13
v 3 11 -13
v 3 18 -13
v 3 19 -13
v 6 10 -13
v 6 11 -13
v 6 18 -13
v 6 19 -13
v -12 28 9
v -12 30 9
v 5 28 9
v 5 30 9
v -8 29 3
v -8 31 3
v -7 29 3
v -7 31 3
v 6 28 3
v 6 33 3
v 8 28 3
v 8 33 3
v -9 28 2
v -9 29 2
v -9 31 2
v -9 32 2
v -9 33 2
v -9 34 2
v -8 33 2
v -8 34 2
v -7 33 2
v -7 34 2
v -6 28 2
v -6 29 2
v -6 31 2
v -6 32 2
v -6 33 2
v -6 34 2
v 5 28 2
v 5 34 2
v 6 28 2
v 6 33 2
v 8 28 2
v 8 33 2
v 9 28 2
v 9 30 2
v 9 34 2
v -3 29 -3
v -3 31 -3
v -2 29 -3
v -2 31 -3
v -4 28 -4
v -4 29 -4
v -4 31 -4
v -4 32 -4
v -4 33 -4
v -4 34 -4
v -3 33 -4
v -3 34 -4
v -2 32 -4
v -2 33 -4
v -1 28 -4
v -1 29 -4
v -1 31 -4
v -1 33 -4
v -1 34 -4
v -10 1 -12
v -10 8 -12
v -9 10 -12
v -9 16 -12
v -9 18 -12
v -9 24 -12
v -6 1 -12
v -6 8 -12
v -6 10 -12
v -6 16 -12
v -6 18 -12
v -6 24 -12
v -3 2 -12
v -3 8 -12
v -3 10 -12
v -3 16 -12
v -3 18 -12
v -3 24 -12
v 0 2 -12
v 0 8 -12
v 0 10 -12
v 0 16 -12
v 0 18 -12
v 0 24 -12
v 3 2 -12
v 3 8 -12
v 3 10 -12
v 3 16 -12
v 3 18 -12
v 3 24 -12
v 6 2 -12
v 6 8 -12
v 6 10 -12
v 6 16 -12
v 6 18 -12
v 6 24 -12
v -13 0 -13
v -13 26 -13
v -13 28 -13
v -13 30 -13
v -10 0 -13
v -10 1 -13
v -10 8 -13
v -9 9 -13
v -9 11 -13
v -9 16 -13
v -9 17 -13
v -9 19 -13
v -9 24 -13
v -6 0 -13
v -6 1 -13
v -6 8 -13
v -6 9 -13
v -6 11 -13
v -6 16 -13
v -6 17 -13
v -6 19 -13
v -6 24 -13
v -3 1 -13
v -3 2 -13
v -3 8 -13
v -3 9 -13
v -3 11 -13
v -3 16 -13
v -3 17 -13
v -3 19 -13
v -3 24 -13
v 0 1 -13
v 0 2 -13
v 0 8 -13
v 0 9 -13
v 0 11 -13
v 0 16 -13
v 0 17 -13
v 0 19 -13
v 0 24 -13
v 3 1 -13
v 3 2 -13
v 3 8 -13
v 3 9 -13
v 3 11 -13
v 3 16 -13
v 3 17 -13
v 3 19 -13
v 3 24 -13
v 6 1 -13
v 6 2 -13
v 6 8 -13
v 6 9 -13
v 6 11 -13
v 6 16 -13
v 6 17 -13
v 6 19 -13
v 6 24 -13
v 10 0 -13
v 10 26 -13
v 10 28 -13
v 10 30 -13
v -14 26 -14
v -14 28 -14
v -9 9 -14
v -9 11 -14
v -9 17 -14
v -9 19 -14
v -6 9 -14
v -6 11 -14
v -6 17 -14
v -6 19 -14
v -3 1 -14
v -3 2 -14
v -3 9 -14
v -3 11 -14
v -3 17 -14
v -3 19 -14
v 0 1 -14
v 0 2 -14
v 0 9 -14
v 0 11 -14
v 0 17 -14
v 0 19 -14
v 3 1 -14
v 3 2 -14
v 3 9 -14
v 3 11 -14
v 3 17 -14
v 3 19 -14
v 6 1 -14
v 6 2 -14
v 6 9 -14
v 6 11 -14
v 6 17 -14
v 6 19 -14
v 11 26 -14
v 11 28 -14
v -13 0 10
v 10 0 10
v -10 0 -12
v -6 0 -12
v -13 0 -13
v -10 0 -13
v -6 0 -13
v 10 0 -13
v -3 1 -13
v 0 1 -13
v 3 1 -13
v 6 1 -13
v -3 1 -14
v 0 1 -14
v 3 1 -14
v 6 1 -14
v -10 8 -12
v -6 8 -12
v -3 8 -12
v 0 8 -12
v 3 8 -12
v 6 8 -12
v -10 8 -13
v -6 8 -13
v -3 8 -13
v 0 8 -13
v 3 8 -13
v 6 8 -13
v -9 9 -13
v -6 9 -13
v -3 9 -13
v 0 9 -13
v 3 9 -13
v 6 9 -13
v -9 9 -14
v -6 9 -14
v -3 9 -14
v 0 9 -14
v 3 9 -14
v 6 9 -14
v -9 16 -12
v -6 16 -12
v -3 16 -12
v 0 16 -12
v 3 16 -12
v 6 16 -12
v -9 16 -13
v -6 16 -13
v -3 16 -13
v 0 16 -13
v 3 16 -13
v 6 16 -13
v -9 17 -13
v -6 17 -13
v -3 17 -13
v 0 17 -13
v 3 17 -13
v 6 17 -13
v -9 17 -14
v -6 17 -14
v -3 17 -14
v 0 17 -14
v 3 17 -14
v 6 17 -14
v -9 24 -12
v -6 24 -12
v -3 24 -12
v 0 24 -12
v 3 24 -12
v 6 24 -12
v -9 24 -13
v -6 24 -13
v -3 24 -13
v 0 24 -13
v 3 24 -13
v 6 24 -13
v -14 26 11
v 11 26 11
v -13 26 10
v 10 26 10
v -13 26 -13
v 10 26 -13
v -14 26 -14
v 11 26 -14
v -9 31 5
v -8 31 5
v -7 31 5
v -6 31 5
v -9 31 4
v -8 31 4
v -7 31 4
v -6 31 4
v -9 31 3
v -8 31 3
v -7 31 3
v -6 31 3
v -9 31 2
v -6 31 2
v -4 31 -1
v -3 31 -1
v -2 31 -1
v -1 31 -1
v -4 31 -2
v -3 31 -2
v -2 31 -2
v -4 31 -3
v -3 31 -3
v -2 31 -3
v -4 31 -4
v -1 31 -4
v 6 33 3
v 8 33 3
v 6 33 2
v 8 33 2
v -10 1 -12
v -6 1 -12
v -10 1 -13
v -6 1 -13
v -3 2 -12
v 0 2 -12
v 3 2 -12
v 6 2 -12
v -3 2 -13
v 0 2 -13
v 3 2 -13
v 6 2 -13
v -3 2 -14
v 0 2 -14
v 3 2 -14
v 6 2 -14
v -9 10 -12
v -6 10 -12
v -3 10 -12
v 0 10 -12
v 3 10 -12
v 6 10 -12
v -9 10 -13
v -6 10 -13
v -3 10 -13
v 0 10 -13
v 3 10 -13
v 6 10 -13
v -9 11 -13
v -6 11 -13
v -3 11 -13
v 0 11 -13
v 3 11 -13
v 6 11 -13
v -9 11 -14
v -6 11 -14
v -3 11 -14
v 0 11 -14
v 3 11 -14
v 6 11 -14
v -9 18 -12
v -6 18 -12
v -3 18 -12
v 0 18 -12
v 3 18 -12
v 6 18 -12
v -9 18 -13
v -6 18 -13
v -3 18 -13
v 0 18 -13
v 3 18 -13
v 6 18 -13
v -9 19 -13
v -6 19 -13
v -3 19 -13
v 0 19 -13
v 3 19 -13
v 6 19 -13
v -9 19 -14
v -6 19 -14
v -3 19 -14
v 0 19 -14
v 3 19 -14
v 6 19 -14
v -14 28 11
v 11 28 11
v -13 28 10
v 10 28 10
v -12 28 9
v 5 28 9
v -9 28 5
v -6 28 5
v 6 28 3
v 8 28 3
v -9 28 2
v -6 28 2
v 5 28 2
v 6 28 2
v 8 28 2
v 9 28 2
v -4 28 -1
v -1 28 -1
v -4 28 -4
v -1 28 -4
v -12 28 -12
v 9 28 -12
v -13 28 -13
v 10 28 -13
v -14 28 -14
v 11 28 -14
v -9 29 5
v -6 29 5
v -8 29 4
v -7 29 4
v -8 29 3
v -7 29 3
v -9 29 2
v -6 29 2
v -4 29 -1
v -1 29 -1
v -3 29 -2
v -2 29 -2
v -3 29 -3
v -2 29 -3
v -4 29 -4
v -1 29 -4
v -13 30 10
v 10 30 10
v -12 30 9
v 5 30 9
v 9 30 9
v 9 30 2
v -12 30 -12
v 9 30 -12
v -13 30 -13
v 10 30 -13
v 5 34 9
v 9 34 9
v -9 34 5
v -6 34 5
v -9 34 4
v -6 34 4
v -9 34 3
v -8 34 3
v -7 34 3
v -6 34 3
v -9 34 2
v -8 34 2
v -7 34 2
v -6 34 2
v 5 34 2
v 9 34 2
v -4 34 -1
v -3 34 -1
v -2 34 -1
v -1 34 -1
v -2 34 -2
v -1 34 -2
v -4 34 -3
v -3 34 -3
v -1 34 -3
v -4 34 -4
v -3 34 -4
v -1 34 -4

# faces
f 3/6/1 2/6/1 1/6/1
f 4/6/1 2/6/1 3/6/1
f 7/7/1 6/7/1 5/7/1
f 8/7/1 6/7/1 7/7/1
f 11/7/1 10/7/1 9/7/1
f 12/7/1 10/7/1 11/7/1
f 15/6/1 14/6/1 13/6/1
f 16/6/1 14/6/1 15/6/1
f 19/6/1 18/6/1 17/6/1
f 20/6/1 18/6/1 19/6/1
f 23/11/1 22/11/1 21/11/1
f 24/11/1 22/11/1 23/11/1
f 29/4/1 26/4/1 25/4/1
f 30/3/1 27/3/1 26/3/1
f 30/4/1 26/4/1 29/4/1
f 31/4/1 28/4/1 27/4/1
f 31/3/1 27/3/1 30/3/1
f 32/4/1 28/4/1 31/4/1
f 33/3/1 30/3/1 29/3/1
f 34/4/1 31/4/1 30/4/1
f 34/3/1 30/3/1 33/3/1
f 35/3/1 32/3/1 31/3/1
f 35/4/1 31/4/1 34/4/1
f 36/3/1 32/3/1 35/3/1
f 37/4/1 34/4/1 33/4/1
f 38/3/1 35/3/1 34/3/1
f 38/4/1 34/4/1 37/4/1
f 39/4/1 36/4/1 35/4/1
f 39/3/1 35/3/1 38/3/1
f 40/4/1 36/4/1 39/4/1
f 43/2/1 42/2/1 41/2/1
f 44/2/1 42/2/1 43/2/1
f 47/7/1 46/7/1 45/7/1
f 48/7/1 46/7/1 47/7/1
f 51/7/1 50/7/1 49/7/1
f 52/7/1 51/7/1 49/7/1
f 53/7/1 51/7/1 52/7/1
f 56/7/1 55/7/1 54/7/1
f 57/7/1 56/7/1 54/7/1
f 58/7/1 56/7/1 57/7/1
f 61/11/1 60/11/1 59/11/1
f 62/11/1 60/11/1 61/11/1
f 67/4/1 64/4/1 63/4/1
f 67/3/1 65/3/1 64/3/1
f 68/4/1 66/4/1 65/4/1
f 68/3/1 65/3/1 67/3/1
f 69/4/1 66/4/1 68/4/1
f 70/4/1 67/4/1 63/4/1
f 70/4/1 68/4/1 67/4/1
f 71/3/1 69/3/1 68/3/1
f 71/4/1 68/4/1 70/4/1
f 72/3/1 69/3/1 71/3/1
f 73/3/1 71/3/1 70/3/1
f 74/4/1 72/4/1 71/4/1
f 74/3/1 71/3/1 73/3/1
f 75/4/1 72/4/1 74/4/1
f 78/6/1 77/6/1 76/6/1
f 79/6/1 77/6/1 78/6/1
f 82/6/1 81/6/1 80/6/1
f 83/6/1 81/6/1 82/6/1
f 86/6/1 85/6/1 84/6/1
f 87/6/1 85/6/1 86/6/1
f 90/2/1 89/2/1 88/2/1
f 91/2/1 89/2/1 90/2/1
f 94/7/1 93/7/1 92/7/1
f 95/7/1 93/7/1 94/7/1
f 98/7/1 97/7/1 96/7/1
f 99/7/1 98/7/1 96/7/1
f 100/7/1 98/7/1 99/7/1
f 103/7/1 102/7/1 101/7/1
f 104/7/1 103/7/1 101/7/1
f 105/7/1 103/7/1 104/7/1
f 108/6/1 107/6/1 106/6/1
f 109/6/1 107/6/1 108/6/1
f 112/6/1 111/6/1 110/6/1
f 113/6/1 111/6/1 112/6/1
f 116/6/1 115/6/1 114/6/1
f 117/6/1 115/6/1 116/6/1
f 120/7/1 119/7/1 118/7/1
f 121/7/1 119/7/1 120/7/1
f 122/7/1 119/7/1 121/7/1
f 125/7/1 124/7/1 123/7/1
f 126/7/1 124/7/1 125/7/1
f 129/7/1 128/7/1 127/7/1
f 130/7/1 129/7/1 127/7/1
f 131/7/1 129/7/1 130/7/1
f 134/7/1 133/7/1 132/7/1
f 135/7/1 134/7/1 132/7/1
f 136/7/1 134/7/1 135/7/1
f 139/7/1 138/7/1 137/7/1
f 140/7/1 138/7/1 139/7/1
f 143/7/1 142/7/1 141/7/1
f 144/7/1 142/7/1 143/7/1
f 145/7/2 146/7/2 147/7/2
f 147/7/2 146/7/2 148/7/2
f 149/7/2 150/7/2 151/7/2
f 151/7/2 150/7/2 152/7/2
f 153/7/2 154/7/2 155/7/2
f 153/7/2 155/7/2 156/7/2
f 156/7/2 155/7/2 157/7/2
f 158/7/2 159/7/2 160/7/2
f 158/7/2 160/7/2 161/7/2
f 161/7/2 160/7/2 162/7/2
f 163/2/2 164/2/2 165/2/2
f 165/2/2 164/2/2 166/2/2
f 167/6/2 168/6/2 169/6/2
f 169/6/2 168/6/2 170/6/2
f 171/6/2 172/6/2 173/6/2
f 173/6/2 172/6/2 174/6/2
f 175/11/2 176/11/2 177/11/2
f 177/11/2 176/11/2 178/11/2
f 179/4/2 180/4/2 183/4/2
f 180/3/2 181/3/2 184/3/2
f 183/4/2 180/4/2 184/4/2
f 181/4/2 182/4/2 185/4/2
f 184/3/2 181/3/2 185/3/2
f 185/4/2 182/4/2 186/4/2
f 183/3/2 184/3/2 187/3/2
f 184/3/2 185/3/2 187/3/2
f 185/3/2 186/3/2 187/3/2
f 187/3/2 186/3/2 188/3/2
f 188/3/2 186/3/2 189/3/2
f 189/3/2 186/3/2 190/3/2
f 187/4/2 188/4/2 191/4/2
f 188/3/2 189/3/2 192/3/2
f 191/4/2 188/4/2 192/4/2
f 189/4/2 190/4/2 193/4/2
f 192/3/2 189/3/2 193/3/2
f 193/4/2 190/4/2 194/4/2
f 195/7/2 196/7/2 197/7/2
f 197/7/2 196/7/2 198/7/2
f 199/7/2 200/7/2 201/7/2
f 199/7/2 201/7/2 202/7/2
f 202/7/2 201/7/2 203/7/2
f 204/7/2 205/7/2 206/7/2
f 204/7/2 206/7/2 207/7/2
f 207/7/2 206/7/2 208/7/2
f 209/2/2 210/2/2 211/2/2
f 211/2/2 210/2/2 212/2/2
f 213/11/2 214/11/2 215/11/2
f 215/11/2 214/11/2 216/11/2
f 217/4/2 218/4/2 219/4/2
f 219/4/2 218/4/2 220/4/2
f 217/4/2 219/4/2 221/4/2
f 219/3/2 220/3/2 222/3/2
f 221/4/2 219/4/2 222/4/2
f 220/4/2 218/4/2 223/4/2
f 222/3/2 220/3/2 223/3/2
f 223/4/2 218/4/2 224/4/2
f 221/3/2 222/3/2 225/3/2
f 222/4/2 223/4/2 226/4/2
f 225/3/2 222/3/2 226/3/2
f 223/3/2 224/3/2 227/3/2
f 226/4/2 223/4/2 227/4/2
f 227/3/2 224/3/2 228/3/2
f 229/6/2 230/6/2 231/6/2
f 231/6/2 230/6/2 232/6/2
f 233/6/2 234/6/2 235/6/2
f 235/6/2 234/6/2 236/6/2
f 237/6/2 238/6/2 239/6/2
f 239/6/2 238/6/2 240/6/2
f 241/7/2 242/7/2 243/7/2
f 243/7/2 242/7/2 244/7/2
f 245/7/2 246/7/2 247/7/2
f 245/7/2 247/7/2 248/7/2
f 248/7/2 247/7/2 249/7/2
f 250/7/2 251/7/2 252/7/2
f 250/7/2 252/7/2 253/7/2
f 253/7/2 252/7/2 254/7/2
f 255/6/2 256/6/2 257/6/2
f 257/6/2 256/6/2 258/6/2
f 259/6/2 260/6/2 261/6/2
f 261/6/2 260/6/2 262/6/2
f 263/6/2 264/6/2 265/6/2
f 265/6/2 264/6/2 266/6/2
f 267/7/2 268/7/2 269/7/2
f 269/7/2 268/7/2 270/7/2
f 271/7/2 272/7/2 273/7/2
f 273/7/2 272/7/2 274/7/2
f 275/7/2 276/7/2 277/7/2
f 277/7/2 276/7/2 278/7/2
f 279/7/2 280/7/2 281/7/2
f 281/7/2 280/7/2 282/7/2
f 283/6/2 284/6/2 285/6/2
f 285/6/2 284/6/2 286/6/2
f 289/6/3 288/6/3 287/6/3
f 290/6/3 288/6/3 289/6/3
f 295/7/3 292/7/3 291/7/3
f 296/7/3 292/7/3 295/7/3
f 297/7/3 294/7/3 293/7/3
f 298/7/3 294/7/3 297/7/3
f 301/7/3 300/7/3 299/7/3
f 302/7/3 300/7/3 301/7/3
f 309/4/3 306/4/3 305/4/3
f 310/3/3 307/3/3 306/3/3
f 310/4/3 306/4/3 309/4/3
f 311/4/3 308/4/3 307/4/3
f 311/3/3 307/3/3 310/3/3
f 312/3/3 310/3/3 309/3/3
f 313/4/3 311/4/3 310/4/3
f 313/3/3 310/3/3 312/3/3
f 314/4/3 308/4/3 311/4/3
f 314/4/3 311/4/3 313/4/3
f 315/11/3 304/11/3 303/11/3
f 316/11/3 304/11/3 315/11/3
f 317/4/3 313/4/3 312/4/3
f 318/3/3 314/3/3 313/3/3
f 318/4/3 313/4/3 317/4/3
f 319/4/3 308/4/3 314/4/3
f 319/3/3 314/3/3 318/3/3
f 320/4/3 308/4/3 319/4/3
f 323/2/3 322/2/3 321/2/3
f 324/2/3 322/2/3 323/2/3
f 330/4/3 328/4/3 327/4/3
f 331/3/3 329/3/3 328/3/3
f 331/4/3 328/4/3 330/4/3
f 332/3/3 329/3/3 331/3/3
f 333/3/3 331/3/3 330/3/3
f 334/4/3 332/4/3 331/4/3
f 334/3/3 331/3/3 333/3/3
f 335/4/3 332/4/3 334/4/3
f 336/11/3 326/11/3 325/11/3
f 337/11/3 326/11/3 336/11/3
f 338/4/3 334/4/3 333/4/3
f 339/3/3 335/3/3 334/3/3
f 339/4/3 334/4/3 338/4/3
f 340/3/3 335/3/3 339/3/3
f 343/2/3 342/2/3 341/2/3
f 344/2/3 342/2/3 343/2/3
f 347/7/3 346/7/3 345/7/3
f 348/7/3 346/7/3 347/7/3
f 353/6/3 350/6/3 349/6/3
f 354/6/3 350/6/3 353/6/3
f 355/6/3 352/6/3 351/6/3
f 356/6/3 352/6/3 355/6/3
f 361/6/3 358/6/3 357/6/3
f 362/6/3 358/6/3 361/6/3
f 363/6/3 360/6/3 359/6/3
f 364/6/3 360/6/3 363/6/3
f 369/6/3 366/6/3 365/6/3
f 370/6/3 366/6/3 369/6/3
f 371/6/3 368/6/3 367/6/3
f 372/6/3 368/6/3 371/6/3
f 373/7/4 374/7/4 375/7/4
f 375/7/4 374/7/4 376/7/4
f 377/2/4 378/2/4 379/2/4
f 379/2/4 378/2/4 380/2/4
f 381/8/4 382/8/4 383/8/4
f 383/8/4 382/8/4 384/8/4
f 388/3/4 389/3/4 391/3/4
f 389/4/4 390/4/4 391/4/4
f 391/4/4 390/4/4 392/4/4
f 388/3/4 391/3/4 393/3/4
f 391/3/4 392/3/4 393/3/4
f 393/3/4 392/3/4 394/3/4
f 385/11/4 386/11/4 395/11/4
f 395/11/4 386/11/4 396/11/4
f 387/4/4 388/4/4 397/4/4
f 388/3/4 393/3/4 398/3/4
f 397/4/4 388/4/4 398/4/4
f 393/4/4 394/4/4 399/4/4
f 398/3/4 393/3/4 399/3/4
f 399/4/4 394/4/4 400/4/4
f 401/7/4 402/7/4 403/7/4
f 403/7/4 402/7/4 404/7/4
f 404/7/4 402/7/4 406/7/4
f 405/7/4 406/7/4 407/7/4
f 407/7/4 406/7/4 408/7/4
f 406/7/4 402/7/4 409/7/4
f 408/7/4 406/7/4 409/7/4
f 410/2/4 411/2/4 412/2/4
f 412/2/4 411/2/4 413/2/4
f 417/3/4 418/3/4 420/3/4
f 418/4/4 419/4/4 420/4/4
f 420/4/4 419/4/4 421/4/4
f 416/4/4 417/4/4 422/4/4
f 417/3/4 420/3/4 422/3/4
f 420/3/4 421/3/4 422/3/4
f 422/3/4 421/3/4 423/3/4
f 414/11/4 415/11/4 424/11/4
f 424/11/4 415/11/4 425/11/4
f 416/4/4 422/4/4 426/4/4
f 422/4/4 423/4/4 426/4/4
f 423/3/4 421/3/4 427/3/4
f 426/4/4 423/4/4 427/4/4
f 427/3/4 421/3/4 428/3/4
f 429/11/4 430/11/4 435/11/4
f 435/11/4 430/11/4 436/11/4
f 431/9/4 432/9/4 437/9/4
f 437/9/4 432/9/4 438/9/4
f 433/9/4 434/9/4 439/9/4
f 439/9/4 434/9/4 440/9/4
f 441/9/4 442/9/4 447/9/4
f 447/9/4 442/9/4 448/9/4
f 443/9/4 444/9/4 449/9/4
f 449/9/4 444/9/4 450/9/4
f 445/9/4 446/9/4 451/9/4
f 451/9/4 446/9/4 452/9/4
f 453/9/4 454/9/4 459/9/4
f 459/9/4 454/9/4 460/9/4
f 455/9/4 456/9/4 461/9/4
f 461/9/4 456/9/4 462/9/4
f 457/9/4 458/9/4 463/9/4
f 463/9/4 458/9/4 464/9/4
f 465/7/4 466/7/4 469/7/4
f 469/7/4 466/7/4 470/7/4
f 470/7/4 466/7/4 471/7/4
f 471/7/4 466/7/4 472/7/4
f 472/7/4 466/7/4 473/7/4
f 473/7/4 466/7/4 474/7/4
f 474/7/4 466/7/4 475/7/4
f 475/7/4 466/7/4 476/7/4
f 476/7/4 466/7/4 477/7/4
f 469/6/4 470/6/4 478/6/4
f 478/6/4 470/6/4 479/6/4
f 471/7/4 472/7/4 480/7/4
f 480/7/4 472/7/4 481/7/4
f 474/7/4 475/7/4 483/7/4
f 483/7/4 475/7/4 484/7/4
f 477/7/4 466/7/4 486/7/4
f 484/7/4 485/7/4 487/7/4
f 485/7/4 486/7/4 487/7/4
f 478/7/4 479/7/4 487/7/4
f 481/7/4 482/7/4 487/7/4
f 483/7/4 484/7/4 487/7/4
f 482/7/4 483/7/4 487/7/4
f 479/7/4 480/7/4 487/7/4
f 480/7/4 481/7/4 487/7/4
f 487/7/4 486/7/4 488/7/4
f 488/7/4 486/7/4 489/7/4
f 489/7/4 486/7/4 490/7/4
f 490/7/4 486/7/4 491/7/4
f 491/7/4 486/7/4 492/7/4
f 492/7/4 486/7/4 493/7/4
f 493/7/4 486/7/4 494/7/4
f 486/7/4 466/7/4 495/7/4
f 494/7/4 486/7/4 495/7/4
f 478/7/4 487/7/4 496/7/4
f 489/7/4 490/7/4 498/7/4
f 498/7/4 490/7/4 499/7/4
f 492/7/4 493/7/4 501/7/4
f 501/7/4 493/7/4 502/7/4
f 495/7/4 466/7/4 504/7/4
f 502/7/4 503/7/4 505/7/4
f 503/7/4 504/7/4 505/7/4
f 499/7/4 500/7/4 505/7/4
f 496/7/4 497/7/4 505/7/4
f 501/7/4 502/7/4 505/7/4
f 500/7/4 501/7/4 505/7/4
f 478/7/4 496/7/4 505/7/4
f 498/7/4 499/7/4 505/7/4
f 497/7/4 498/7/4 505/7/4
f 505/7/4 504/7/4 506/7/4
f 506/7/4 504/7/4 507/7/4
f 507/7/4 504/7/4 508/7/4
f 508/7/4 504/7/4 509/7/4
f 509/7/4 504/7/4 510/7/4
f 510/7/4 504/7/4 511/7/4
f 511/7/4 504/7/4 512/7/4
f 504/7/4 466/7/4 513/7/4
f 512/7/4 504/7/4 513/7/4
f 478/7/4 505/7/4 514/7/4
f 507/7/4 508/7/4 516/7/4
f 516/7/4 508/7/4 517/7/4
f 510/7/4 511/7/4 519/7/4
f 519/7/4 511/7/4 520/7/4
f 513/7/4 466/7/4 522/7/4
f 520/7/4 521/7/4 523/7/4
f 521/7/4 522/7/4 523/7/4
f 517/7/4 518/7/4 523/7/4
f 514/7/4 515/7/4 523/7/4
f 519/7/4 520/7/4 523/7/4
f 518/7/4 519/7/4 523/7/4
f 478/7/4 514/7/4 523/7/4
f 516/7/4 517/7/4 523/7/4
f 515/7/4 516/7/4 523/7/4
f 522/7/4 466/7/4 524/7/4
f 523/7/4 522/7/4 524/7/4
f 467/7/4 468/7/4 525/7/4
f 525/7/4 468/7/4 526/7/4
f 529/6/4 530/6/4 533/6/4
f 533/6/4 530/6/4 534/6/4
f 531/6/4 532/6/4 535/6/4
f 535/6/4 532/6/4 536/6/4
f 537/6/4 538/6/4 543/6/4
f 543/6/4 538/6/4 544/6/4
f 539/6/4 540/6/4 545/6/4
f 545/6/4 540/6/4 546/6/4
f 541/6/4 542/6/4 547/6/4
f 547/6/4 542/6/4 548/6/4
f 549/6/4 550/6/4 555/6/4
f 555/6/4 550/6/4 556/6/4
f 551/6/4 552/6/4 557/6/4
f 557/6/4 552/6/4 558/6/4
f 553/6/4 554/6/4 559/6/4
f 559/6/4 554/6/4 560/6/4
f 527/6/4 528/6/4 561/6/4
f 561/6/4 528/6/4 562/6/4
f 565/7/5 564/7/5 563/7/5
f 566/7/5 564/7/5 565/7/5
f 567/7/5 565/7/5 563/7/5
f 568/6/5 566/6/5 565/6/5
f 568/7/5 565/7/5 567/7/5
f 569/7/5 564/7/5 566/7/5
f 569/6/5 566/6/5 568/6/5
f 570/7/5 564/7/5 569/7/5
f 575/6/5 572/6/5 571/6/5
f 576/6/5 572/6/5 575/6/5
f 577/6/5 574/6/5 573/6/5
f 578/6/5 574/6/5 577/6/5
f 585/7/5 580/7/5 579/7/5
f 586/7/5 580/7/5 585/7/5
f 587/7/5 582/7/5 581/7/5
f 588/7/5 582/7/5 587/7/5
f 589/7/5 584/7/5 583/7/5
f 590/7/5 584/7/5 589/7/5
f 597/6/5 592/6/5 591/6/5
f 598/6/5 592/6/5 597/6/5
f 599/6/5 594/6/5 593/6/5
f 600/6/5 594/6/5 599/6/5
f 601/6/5 596/6/5 595/6/5
f 602/6/5 596/6/5 601/6/5
f 609/7/5 604/7/5 603/7/5
f 610/7/5 604/7/5 609/7/5
f 611/7/5 606/7/5 605/7/5
f 612/7/5 606/7/5 611/7/5
f 613/7/5 608/7/5 607/7/5
f 614/7/5 608/7/5 613/7/5
f 621/6/5 616/6/5 615/6/5
f 622/6/5 616/6/5 621/6/5
f 623/6/5 618/6/5 617/6/5
f 624/6/5 618/6/5 623/6/5
f 625/6/5 620/6/5 619/6/5
f 626/6/5 620/6/5 625/6/5
f 633/7/5 628/7/5 627/7/5
f 634/7/5 628/7/5 633/7/5
f 635/7/5 630/7/5 629/7/5
f 636/7/5 630/7/5 635/7/5
f 637/7/5 632/7/5 631/7/5
f 638/7/5 632/7/5 637/7/5
f 641/6/5 640/6/5 639/6/5
f 642/6/5 640/6/5 641/6/5
f 643/6/5 641/6/5 639/6/5
f 644/6/5 640/6/5 642/6/5
f 645/6/5 643/6/5 639/6/5
f 645/6/5 644/6/5 643/6/5
f 646/6/5 640/6/5 644/6/5
f 646/6/5 644/6/5 645/6/5
f 651/4/5 648/4/5 647/4/5
f 652/3/5 649/3/5 648/3/5
f 652/4/5 648/4/5 651/4/5
f 653/4/5 650/4/5 649/4/5
f 653/3/5 649/3/5 652/3/5
f 654/4/5 650/4/5 653/4/5
f 655/3/5 652/3/5 651/3/5
f 656/3/5 652/3/5 655/3/5
f 657/3/5 654/3/5 653/3/5
f 658/3/5 654/3/5 657/3/5
f 659/4/5 656/4/5 655/4/5
f 659/4/5 657/4/5 656/4/5
f 659/4/5 658/4/5 657/4/5
f 660/4/5 658/4/5 659/4/5
f 665/4/5 662/4/5 661/4/5
f 666/3/5 663/3/5 662/3/5
f 666/4/5 662/4/5 665/4/5
f 667/4/5 664/4/5 663/4/5
f 667/3/5 663/3/5 666/3/5
f 668/3/5 666/3/5 665/3/5
f 669/3/5 666/3/5 668/3/5
f 670/4/5 664/4/5 667/4/5
f 671/4/5 669/4/5 668/4/5
f 671/4/5 670/4/5 669/4/5
f 672/4/5 664/4/5 670/4/5
f 672/4/5 670/4/5 671/4/5
f 675/7/5 674/7/5 673/7/5
f 676/7/5 674/7/5 675/7/5
f 677/6/6 678/6/6 679/6/6
f 679/6/6 678/6/6 680/6/6
f 681/6/6 682/6/6 685/6/6
f 685/6/6 682/6/6 686/6/6
f 683/6/6 684/6/6 687/6/6
f 687/6/6 684/6/6 688/6/6
f 685/6/6 686/6/6 689/6/6
f 689/6/6 686/6/6 690/6/6
f 687/6/6 688/6/6 691/6/6
f 691/6/6 688/6/6 692/6/6
f 693/7/6 694/7/6 699/7/6
f 699/7/6 694/7/6 700/7/6
f 695/7/6 696/7/6 701/7/6
f 701/7/6 696/7/6 702/7/6
f 697/7/6 698/7/6 703/7/6
f 703/7/6 698/7/6 704/7/6
f 705/6/6 706/6/6 711/6/6
f 711/6/6 706/6/6 712/6/6
f 707/6/6 708/6/6 713/6/6
f 713/6/6 708/6/6 714/6/6
f 709/6/6 710/6/6 715/6/6
f 715/6/6 710/6/6 716/6/6
f 717/7/6 718/7/6 723/7/6
f 723/7/6 718/7/6 724/7/6
f 719/7/6 720/7/6 725/7/6
f 725/7/6 720/7/6 726/7/6
f 721/7/6 722/7/6 727/7/6
f 727/7/6 722/7/6 728/7/6
f 729/6/6 730/6/6 735/6/6
f 735/6/6 730/6/6 736/6/6
f 731/6/6 732/6/6 737/6/6
f 737/6/6 732/6/6 738/6/6
f 733/6/6 734/6/6 739/6/6
f 739/6/6 734/6/6 740/6/6
f 741/6/6 742/6/6 743/6/6
f 743/6/6 742/6/6 744/6/6
f 745/6/6 746/6/6 747/6/6
f 747/6/6 746/6/6 748/6/6
f 745/6/6 747/6/6 751/6/6
f 748/6/6 746/6/6 752/6/6
f 752/6/6 746/6/6 753/6/6
f 749/6/6 750/6/6 754/6/6
f 754/6/6 750/6/6 755/6/6
f 752/6/6 753/6/6 757/6/6
f 755/6/6 756/6/6 757/6/6
f 754/6/6 755/6/6 757/6/6
f 753/6/6 754/6/6 757/6/6
f 751/6/6 752/6/6 757/6/6
f 757/6/6 756/6/6 758/6/6
f 751/6/6 757/6/6 759/6/6
f 758/6/6 756/6/6 760/6/6
f 745/6/6 751/6/6 761/6/6
f 759/6/6 760/6/6 761/6/6
f 751/6/6 759/6/6 761/6/6
f 760/6/6 756/6/6 762/6/6
f 761/6/6 760/6/6 762/6/6
f 741/6/6 743/6/6 763/6/6
f 744/6/6 742/6/6 764/6/6
f 741/6/6 763/6/6 765/6/6
f 763/6/6 764/6/6 765/6/6
f 764/6/6 742/6/6 766/6/6
f 765/6/6 764/6/6 766/6/6
f 767/11/6 768/11/6 769/11/6
f 769/11/6 768/11/6 770/11/6
f 767/11/6 769/11/6 771/11/6
f 770/11/6 768/11/6 772/11/6
f 767/11/6 771/11/6 773/11/6
f 771/11/6 772/11/6 773/11/6
f 772/11/6 768/11/6 774/11/6
f 773/11/6 772/11/6 774/11/6
f 775/11/6 776/11/6 777/11/6
f 777/11/6 776/11/6 778/11/6
f 775/11/6 777/11/6 779/11/6
f 778/11/6 776/11/6 780/11/6
f 775/11/6 779/11/6 781/11/6
f 779/11/6 780/11/6 781/11/6
f 780/11/6 776/11/6 782/11/6
f 781/11/6 780/11/6 782/11/6
f 783/7/6 784/7/6 785/7/6
f 785/7/6 784/7/6 786/7/6
f 786/7/6 784/7/6 787/7/6
f 787/7/6 784/7/6 788/7/6
f 783/7/6 785/7/6 789/7/6
f 788/7/6 784/7/6 790/7/6
f 783/7/6 789/7/6 791/7/6
f 789/7/6 790/7/6 791/7/6
f 790/7/6 784/7/6 792/7/6
f 791/7/6 790/7/6 792/7/6
f 795/4/6 796/4/6 797/4/6
f 797/4/6 796/4/6 798/4/6
f 797/3/6 798/3/6 799/3/6
f 799/3/6 798/3/6 800/3/6
f 800/3/6 798/3/6 801/3/6
f 801/3/6 798/3/6 802/3/6
f 799/4/6 800/4/6 803/4/6
f 800/3/6 801/3/6 804/3/6
f 803/4/6 800/4/6 804/4/6
f 801/4/6 802/4/6 805/4/6
f 804/3/6 801/3/6 805/3/6
f 805/4/6 802/4/6 806/4/6
f 793/7/6 794/7/6 807/7/6
f 807/7/6 794/7/6 808/7/6
f 810/4/6 811/4/6 813/4/6
f 811/3/6 812/3/6 813/3/6
f 813/3/6 812/3/6 814/3/6
f 809/3/6 810/3/6 815/3/6
f 810/4/6 813/4/6 816/4/6
f 815/3/6 810/3/6 816/3/6
f 813/4/6 814/4/6 816/4/6
f 816/4/6 814/4/6 817/4/6
f 815/4/6 816/4/6 818/4/6
f 816/3/6 817/3/6 819/3/6
f 818/4/6 816/4/6 819/4/6
f 819/3/6 817/3/6 820/3/6
