# MagicaVoxel @ Ephtracy

# group
g VoxelCat1

# material
mtllib VoxelCat1.mtl
usemtl palette

# normals
vn -1 0 0
vn 1 0 0
vn 0 0 1
vn 0 0 -1
vn 0 -1 0
vn 0 1 0

# texcoords
vt 0.0292969 0.5
vt 0.482422 0.5
vt 0.494141 0.5
vt 0.755859 0.5

# verts
v -5 9 -5
v -5 9 -6
v -5 11 -5
v -5 11 -6
v -3 0 -2
v -3 0 -4
v -3 0 -7
v -3 0 -9
v -3 3 -2
v -3 3 -4
v -3 3 -7
v -3 3 -9
v -3 8 -5
v -3 8 -6
v -3 9 -5
v -3 9 -6
v -2 2 -4
v -2 2 -7
v -2 3 -2
v -2 3 -4
v -2 3 -7
v -2 3 -9
v -2 4 -2
v -2 4 -3
v -2 4 -8
v -2 4 -9
v -2 6 -3
v -2 6 -5
v -2 6 -6
v -2 6 -8
v -2 8 -5
v -2 8 -6
v 2 7 -3
v 2 7 -8
v 2 10 -3
v 2 10 -8
v 3 0 -3
v 3 0 -5
v 3 0 -6
v 3 0 -8
v 3 3 -3
v 3 3 -5
v 3 3 -6
v 3 3 -8
v 3 6 -4
v 3 6 -7
v 3 7 -4
v 3 7 -7
v 4 10 -3
v 4 10 -5
v 4 10 -6
v 4 10 -8
v 4 11 -4
v 4 11 -5
v 4 11 -6
v 4 11 -7
v 4 12 -3
v 4 12 -4
v 4 12 -7
v 4 12 -8
v -4 10 -5
v -4 10 -6
v -4 11 -5
v -4 11 -6
v -2 9 -5
v -2 9 -6
v -2 10 -5
v -2 10 -6
v -1 1 -2
v -1 1 -4
v -1 1 -7
v -1 1 -9
v -1 2 -4
v -1 2 -7
v -1 3 -3
v -1 3 -8
v -1 4 -2
v -1 4 -3
v -1 4 -8
v -1 4 -9
v -1 6 -5
v -1 6 -6
v -1 9 -5
v -1 9 -6
v 0 0 -2
v 0 0 -4
v 0 0 -7
v 0 0 -9
v 0 1 -2
v 0 1 -4
v 0 1 -7
v 0 1 -9
v 4 5 -3
v 4 5 -4
v 4 5 -7
v 4 5 -8
v 4 6 -3
v 4 6 -4
v 4 6 -7
v 4 6 -8
v 5 1 -3
v 5 1 -5
v 5 1 -6
v 5 1 -8
v 5 3 -5
v 5 3 -6
v 5 5 -3
v 5 5 -4
v 5 5 -5
v 5 5 -6
v 5 5 -7
v 5 5 -8
v 5 6 -4
v 5 6 -5
v 5 6 -6
v 5 6 -7
v 5 7 -4
v 5 7 -7
v 5 10 -3
v 5 10 -5
v 5 10 -6
v 5 10 -8
v 5 11 -4
v 5 11 -5
v 5 11 -6
v 5 11 -7
v 5 12 -3
v 5 12 -4
v 5 12 -7
v 5 12 -8
v 6 0 -3
v 6 0 -5
v 6 0 -6
v 6 0 -8
v 6 1 -3
v 6 1 -5
v 6 1 -6
v 6 1 -8
v 6 7 -3
v 6 7 -8
v 6 8 -4
v 6 8 -5
v 6 8 -6
v 6 8 -7
v 6 9 -4
v 6 9 -5
v 6 9 -6
v 6 9 -7
v 6 10 -3
v 6 10 -8
v -3 0 -2
v -3 3 -2
v -2 3 -2
v -2 4 -2
v -1 1 -2
v -1 4 -2
v 0 0 -2
v 0 1 -2
v -2 4 -3
v -2 6 -3
v -1 3 -3
v -1 4 -3
v 2 7 -3
v 2 10 -3
v 3 0 -3
v 3 3 -3
v 4 5 -3
v 4 6 -3
v 4 10 -3
v 4 12 -3
v 5 1 -3
v 5 5 -3
v 5 10 -3
v 5 12 -3
v 6 0 -3
v 6 1 -3
v 6 7 -3
v 6 10 -3
v 3 6 -4
v 3 7 -4
v 4 5 -4
v 4 6 -4
v 4 7 -4
v 5 5 -4
v 5 6 -4
v 5 7 -4
v -5 9 -5
v -5 11 -5
v -4 10 -5
v -4 11 -5
v -3 8 -5
v -3 9 -5
v -2 6 -5
v -2 8 -5
v -2 9 -5
v -2 10 -5
v -1 6 -5
v -1 9 -5
v 3 0 -6
v 3 3 -6
v 4 10 -6
v 4 11 -6
v 5 1 -6
v 5 3 -6
v 5 10 -6
v 5 11 -6
v 6 0 -6
v 6 1 -6
v -3 0 -7
v -3 3 -7
v -2 2 -7
v -2 3 -7
v -1 1 -7
v -1 2 -7
v 0 0 -7
v 0 1 -7
v 4 11 -7
v 4 12 -7
v 5 11 -7
v 5 12 -7
v -3 0 -4
v -3 3 -4
v -2 2 -4
v -2 3 -4
v -1 1 -4
v -1 2 -4
v 0 0 -4
v 0 1 -4
v 4 11 -4
v 4 12 -4
v 5 11 -4
v 5 12 -4
v 3 0 -5
v 3 3 -5
v 4 10 -5
v 4 11 -5
v 5 1 -5
v 5 3 -5
v 5 10 -5
v 5 11 -5
v 6 0 -5
v 6 1 -5
v -5 9 -6
v -5 11 -6
v -4 10 -6
v -4 11 -6
v -3 8 -6
v -3 9 -6
v -2 6 -6
v -2 8 -6
v -2 9 -6
v -2 10 -6
v -1 6 -6
v -1 9 -6
v 3 6 -7
v 3 7 -7
v 4 5 -7
v 4 6 -7
v 4 7 -7
v 5 5 -7
v 5 6 -7
v 5 7 -7
v -2 4 -8
v -2 6 -8
v -1 3 -8
v -1 4 -8
v 2 7 -8
v 2 10 -8
v 3 0 -8
v 3 3 -8
v 4 5 -8
v 4 6 -8
v 4 10 -8
v 4 12 -8
v 5 1 -8
v 5 5 -8
v 5 10 -8
v 5 12 -8
v 6 0 -8
v 6 1 -8
v 6 7 -8
v 6 10 -8
v -3 0 -9
v -3 3 -9
v -2 3 -9
v -2 4 -9
v -1 1 -9
v -1 4 -9
v 0 0 -9
v 0 1 -9
v -3 0 -2
v 0 0 -2
v 3 0 -3
v 6 0 -3
v -3 0 -4
v 0 0 -4
v 3 0 -5
v 6 0 -5
v 3 0 -6
v 6 0 -6
v -3 0 -7
v 0 0 -7
v 3 0 -8
v 6 0 -8
v -3 0 -9
v 0 0 -9
v -2 2 -4
v -1 2 -4
v -2 2 -7
v -1 2 -7
v -1 3 -3
v 3 3 -3
v 3 3 -5
v 5 3 -5
v 3 3 -6
v 5 3 -6
v -1 3 -8
v 3 3 -8
v 2 7 -3
v 6 7 -3
v 3 7 -4
v 4 7 -4
v 5 7 -4
v 3 7 -7
v 4 7 -7
v 5 7 -7
v 2 7 -8
v 6 7 -8
v -3 8 -5
v -2 8 -5
v -3 8 -6
v -2 8 -6
v -5 9 -5
v -3 9 -5
v -5 9 -6
v -3 9 -6
v -1 1 -2
v 0 1 -2
v 5 1 -3
v 6 1 -3
v -1 1 -4
v 0 1 -4
v 5 1 -5
v 6 1 -5
v 5 1 -6
v 6 1 -6
v -1 1 -7
v 0 1 -7
v 5 1 -8
v 6 1 -8
v -1 1 -9
v 0 1 -9
v -3 3 -2
v -2 3 -2
v -3 3 -4
v -2 3 -4
v -3 3 -7
v -2 3 -7
v -3 3 -9
v -2 3 -9
v -2 4 -2
v -1 4 -2
v -2 4 -3
v -1 4 -3
v -2 4 -8
v -1 4 -8
v -2 4 -9
v -1 4 -9
v 4 5 -3
v 5 5 -3
v 4 5 -4
v 5 5 -4
v 4 5 -7
v 5 5 -7
v 4 5 -8
v 5 5 -8
v -2 6 -3
v 4 6 -3
v 3 6 -4
v 4 6 -4
v -2 6 -5
v -1 6 -5
v -2 6 -6
v -1 6 -6
v 3 6 -7
v 4 6 -7
v -2 6 -8
v 4 6 -8
v -2 9 -5
v -1 9 -5
v -2 9 -6
v -1 9 -6
v 2 10 -3
v 4 10 -3
v 5 10 -3
v 6 10 -3
v -4 10 -5
v -2 10 -5
v 4 10 -5
v 5 10 -5
v -4 10 -6
v -2 10 -6
v 4 10 -6
v 5 10 -6
v 2 10 -8
v 4 10 -8
v 5 10 -8
v 6 10 -8
v 4 11 -4
v 5 11 -4
v -5 11 -5
v -4 11 -5
v 4 11 -5
v 5 11 -5
v -5 11 -6
v -4 11 -6
v 4 11 -6
v 5 11 -6
v 4 11 -7
v 5 11 -7
v 4 12 -3
v 5 12 -3
v 4 12 -4
v 5 12 -4
v 4 12 -7
v 5 12 -7
v 4 12 -8
v 5 12 -8

# faces
f 3/4/1 2/4/1 1/4/1
f 4/4/1 2/4/1 3/4/1
f 9/4/1 6/4/1 5/4/1
f 10/4/1 6/4/1 9/4/1
f 11/4/1 8/4/1 7/4/1
f 12/4/1 8/4/1 11/4/1
f 15/4/1 14/4/1 13/4/1
f 16/4/1 14/4/1 15/4/1
f 20/4/1 18/4/1 17/4/1
f 21/4/1 18/4/1 20/4/1
f 23/4/1 20/4/1 19/4/1
f 23/4/1 22/4/1 21/4/1
f 23/4/1 21/4/1 20/4/1
f 24/4/1 22/4/1 23/4/1
f 25/4/1 22/4/1 24/4/1
f 26/4/1 22/4/1 25/4/1
f 27/4/1 25/4/1 24/4/1
f 28/4/1 25/4/1 27/4/1
f 29/4/1 25/4/1 28/4/1
f 30/4/1 25/4/1 29/4/1
f 31/4/1 29/4/1 28/4/1
f 32/4/1 29/4/1 31/4/1
f 35/4/1 34/4/1 33/4/1
f 36/4/1 34/4/1 35/4/1
f 41/4/1 38/4/1 37/4/1
f 42/4/1 38/4/1 41/4/1
f 43/4/1 40/4/1 39/4/1
f 44/4/1 40/4/1 43/4/1
f 47/1/1 46/1/1 45/1/1
f 48/1/1 46/1/1 47/1/1
f 53/4/1 50/4/1 49/4/1
f 54/4/1 50/4/1 53/4/1
f 55/4/1 52/4/1 51/4/1
f 56/4/1 52/4/1 55/4/1
f 57/4/1 53/4/1 49/4/1
f 58/4/1 53/4/1 57/4/1
f 59/4/1 52/4/1 56/4/1
f 60/4/1 52/4/1 59/4/1
f 61/4/2 62/4/2 63/4/2
f 63/4/2 62/4/2 64/4/2
f 65/4/2 66/4/2 67/4/2
f 67/4/2 66/4/2 68/4/2
f 69/4/2 70/4/2 73/4/2
f 71/4/2 72/4/2 74/4/2
f 69/4/2 73/4/2 75/4/2
f 73/4/2 74/4/2 75/4/2
f 74/4/2 72/4/2 76/4/2
f 75/4/2 74/4/2 76/4/2
f 69/4/2 75/4/2 77/4/2
f 77/4/2 75/4/2 78/4/2
f 76/4/2 72/4/2 79/4/2
f 79/4/2 72/4/2 80/4/2
f 81/4/2 82/4/2 83/4/2
f 83/4/2 82/4/2 84/4/2
f 85/4/2 86/4/2 89/4/2
f 89/4/2 86/4/2 90/4/2
f 87/4/2 88/4/2 91/4/2
f 91/4/2 88/4/2 92/4/2
f 93/4/2 94/4/2 97/4/2
f 97/4/2 94/4/2 98/4/2
f 95/4/2 96/4/2 99/4/2
f 99/4/2 96/4/2 100/4/2
f 101/4/2 102/4/2 105/4/2
f 103/4/2 104/4/2 106/4/2
f 101/4/2 105/4/2 107/4/2
f 105/4/2 106/4/2 107/4/2
f 107/4/2 106/4/2 108/4/2
f 108/4/2 106/4/2 109/4/2
f 106/4/2 104/4/2 110/4/2
f 109/4/2 106/4/2 110/4/2
f 110/4/2 104/4/2 111/4/2
f 111/4/2 104/4/2 112/4/2
f 108/1/2 109/1/2 113/1/2
f 109/2/2 110/2/2 114/2/2
f 113/1/2 109/1/2 114/1/2
f 110/1/2 111/1/2 115/1/2
f 114/2/2 110/2/2 115/2/2
f 115/1/2 111/1/2 116/1/2
f 113/4/2 114/4/2 117/4/2
f 114/4/2 115/4/2 117/4/2
f 115/4/2 116/4/2 117/4/2
f 117/4/2 116/4/2 118/4/2
f 119/4/2 120/4/2 123/4/2
f 123/4/2 120/4/2 124/4/2
f 121/4/2 122/4/2 125/4/2
f 125/4/2 122/4/2 126/4/2
f 119/4/2 123/4/2 127/4/2
f 127/4/2 123/4/2 128/4/2
f 126/4/2 122/4/2 129/4/2
f 129/4/2 122/4/2 130/4/2
f 131/4/2 132/4/2 135/4/2
f 135/4/2 132/4/2 136/4/2
f 133/4/2 134/4/2 137/4/2
f 137/4/2 134/4/2 138/4/2
f 139/4/2 140/4/2 141/4/2
f 141/4/2 140/4/2 142/4/2
f 142/4/2 140/4/2 143/4/2
f 143/4/2 140/4/2 144/4/2
f 139/4/2 141/4/2 145/4/2
f 141/3/2 142/3/2 145/3/2
f 142/4/2 143/4/2 146/4/2
f 145/3/2 142/3/2 146/3/2
f 143/3/2 144/3/2 147/3/2
f 146/4/2 143/4/2 147/4/2
f 144/4/2 140/4/2 148/4/2
f 147/3/2 144/3/2 148/3/2
f 146/4/2 147/4/2 149/4/2
f 145/4/2 146/4/2 149/4/2
f 147/4/2 148/4/2 149/4/2
f 139/4/2 145/4/2 149/4/2
f 148/4/2 140/4/2 150/4/2
f 149/4/2 148/4/2 150/4/2
f 153/4/3 152/4/3 151/4/3
f 155/4/3 153/4/3 151/4/3
f 155/4/3 154/4/3 153/4/3
f 156/4/3 154/4/3 155/4/3
f 157/4/3 155/4/3 151/4/3
f 158/4/3 155/4/3 157/4/3
f 162/4/3 160/4/3 159/4/3
f 166/4/3 162/4/3 161/4/3
f 167/4/3 160/4/3 162/4/3
f 167/4/3 166/4/3 165/4/3
f 167/4/3 162/4/3 166/4/3
f 168/4/3 160/4/3 167/4/3
f 169/4/3 164/4/3 163/4/3
f 171/4/3 167/4/3 165/4/3
f 172/4/3 167/4/3 171/4/3
f 173/4/3 170/4/3 169/4/3
f 173/4/3 169/4/3 163/4/3
f 174/4/3 170/4/3 173/4/3
f 175/4/3 171/4/3 165/4/3
f 176/4/3 171/4/3 175/4/3
f 177/4/3 173/4/3 163/4/3
f 178/4/3 173/4/3 177/4/3
f 182/1/3 180/1/3 179/1/3
f 183/1/3 180/1/3 182/1/3
f 184/1/3 182/1/3 181/1/3
f 185/4/3 183/4/3 182/4/3
f 185/1/3 182/1/3 184/1/3
f 186/4/3 183/4/3 185/4/3
f 189/4/3 188/4/3 187/4/3
f 190/4/3 188/4/3 189/4/3
f 192/4/3 189/4/3 187/4/3
f 194/4/3 192/4/3 191/4/3
f 195/4/3 189/4/3 192/4/3
f 195/4/3 192/4/3 194/4/3
f 196/4/3 189/4/3 195/4/3
f 197/4/3 194/4/3 193/4/3
f 197/4/3 195/4/3 194/4/3
f 198/4/3 195/4/3 197/4/3
f 203/4/3 200/4/3 199/4/3
f 204/4/3 200/4/3 203/4/3
f 205/4/3 202/4/3 201/4/3
f 206/4/3 202/4/3 205/4/3
f 207/4/3 203/4/3 199/4/3
f 208/4/3 203/4/3 207/4/3
f 211/4/3 210/4/3 209/4/3
f 212/4/3 210/4/3 211/4/3
f 213/4/3 211/4/3 209/4/3
f 214/4/3 211/4/3 213/4/3
f 215/4/3 213/4/3 209/4/3
f 216/4/3 213/4/3 215/4/3
f 219/4/3 218/4/3 217/4/3
f 220/4/3 218/4/3 219/4/3
f 221/4/4 222/4/4 223/4/4
f 223/4/4 222/4/4 224/4/4
f 221/4/4 223/4/4 225/4/4
f 225/4/4 223/4/4 226/4/4
f 221/4/4 225/4/4 227/4/4
f 227/4/4 225/4/4 228/4/4
f 229/4/4 230/4/4 231/4/4
f 231/4/4 230/4/4 232/4/4
f 233/4/4 234/4/4 237/4/4
f 237/4/4 234/4/4 238/4/4
f 235/4/4 236/4/4 239/4/4
f 239/4/4 236/4/4 240/4/4
f 233/4/4 237/4/4 241/4/4
f 241/4/4 237/4/4 242/4/4
f 243/4/4 244/4/4 245/4/4
f 245/4/4 244/4/4 246/4/4
f 243/4/4 245/4/4 248/4/4
f 247/4/4 248/4/4 250/4/4
f 248/4/4 245/4/4 251/4/4
f 250/4/4 248/4/4 251/4/4
f 251/4/4 245/4/4 252/4/4
f 249/4/4 250/4/4 253/4/4
f 250/4/4 251/4/4 253/4/4
f 253/4/4 251/4/4 254/4/4
f 255/1/4 256/1/4 258/1/4
f 258/1/4 256/1/4 259/1/4
f 257/1/4 258/1/4 260/1/4
f 258/4/4 259/4/4 261/4/4
f 260/1/4 258/1/4 261/1/4
f 261/4/4 259/4/4 262/4/4
f 263/4/4 264/4/4 266/4/4
f 265/4/4 266/4/4 270/4/4
f 266/4/4 264/4/4 271/4/4
f 269/4/4 270/4/4 271/4/4
f 270/4/4 266/4/4 271/4/4
f 271/4/4 264/4/4 272/4/4
f 267/4/4 268/4/4 273/4/4
f 269/4/4 271/4/4 275/4/4
f 275/4/4 271/4/4 276/4/4
f 273/4/4 274/4/4 277/4/4
f 267/4/4 273/4/4 277/4/4
f 277/4/4 274/4/4 278/4/4
f 269/4/4 275/4/4 279/4/4
f 279/4/4 275/4/4 280/4/4
f 267/4/4 277/4/4 281/4/4
f 281/4/4 277/4/4 282/4/4
f 283/4/4 284/4/4 285/4/4
f 283/4/4 285/4/4 287/4/4
f 285/4/4 286/4/4 287/4/4
f 287/4/4 286/4/4 288/4/4
f 283/4/4 287/4/4 289/4/4
f 289/4/4 287/4/4 290/4/4
f 295/4/5 292/4/5 291/4/5
f 296/4/5 292/4/5 295/4/5
f 297/4/5 294/4/5 293/4/5
f 298/4/5 294/4/5 297/4/5
f 303/4/5 300/4/5 299/4/5
f 304/4/5 300/4/5 303/4/5
f 305/4/5 302/4/5 301/4/5
f 306/4/5 302/4/5 305/4/5
f 309/4/5 308/4/5 307/4/5
f 310/4/5 308/4/5 309/4/5
f 313/4/5 312/4/5 311/4/5
f 315/4/5 313/4/5 311/4/5
f 315/4/5 314/4/5 313/4/5
f 316/4/5 314/4/5 315/4/5
f 317/4/5 315/4/5 311/4/5
f 318/4/5 315/4/5 317/4/5
f 321/4/5 320/4/5 319/4/5
f 322/4/5 320/4/5 321/4/5
f 323/4/5 320/4/5 322/4/5
f 324/4/5 321/4/5 319/4/5
f 326/4/5 320/4/5 323/4/5
f 327/4/5 325/4/5 324/4/5
f 327/4/5 326/4/5 325/4/5
f 327/4/5 324/4/5 319/4/5
f 328/4/5 320/4/5 326/4/5
f 328/4/5 326/4/5 327/4/5
f 331/4/5 330/4/5 329/4/5
f 332/4/5 330/4/5 331/4/5
f 335/4/5 334/4/5 333/4/5
f 336/4/5 334/4/5 335/4/5
f 337/4/6 338/4/6 341/4/6
f 341/4/6 338/4/6 342/4/6
f 339/4/6 340/4/6 343/4/6
f 343/4/6 340/4/6 344/4/6
f 345/4/6 346/4/6 349/4/6
f 349/4/6 346/4/6 350/4/6
f 347/4/6 348/4/6 351/4/6
f 351/4/6 348/4/6 352/4/6
f 353/4/6 354/4/6 355/4/6
f 355/4/6 354/4/6 356/4/6
f 357/4/6 358/4/6 359/4/6
f 359/4/6 358/4/6 360/4/6
f 361/4/6 362/4/6 363/4/6
f 363/4/6 362/4/6 364/4/6
f 365/4/6 366/4/6 367/4/6
f 367/4/6 366/4/6 368/4/6
f 369/4/6 370/4/6 371/4/6
f 371/4/6 370/4/6 372/4/6
f 373/4/6 374/4/6 375/4/6
f 375/4/6 374/4/6 376/4/6
f 377/4/6 378/4/6 379/4/6
f 379/4/6 378/4/6 380/4/6
f 377/4/6 379/4/6 381/4/6
f 381/4/6 379/4/6 382/4/6
f 382/4/6 379/4/6 384/4/6
f 384/4/6 379/4/6 385/4/6
f 383/4/6 384/4/6 385/4/6
f 383/4/6 385/4/6 387/4/6
f 385/4/6 386/4/6 387/4/6
f 387/4/6 386/4/6 388/4/6
f 389/4/6 390/4/6 391/4/6
f 391/4/6 390/4/6 392/4/6
f 393/4/6 394/4/6 399/4/6
f 395/4/6 396/4/6 400/4/6
f 397/4/6 398/4/6 401/4/6
f 401/4/6 398/4/6 402/4/6
f 399/4/6 400/4/6 403/4/6
f 393/4/6 399/4/6 403/4/6
f 400/4/6 396/4/6 404/4/6
f 403/4/6 400/4/6 404/4/6
f 393/4/6 403/4/6 405/4/6
f 405/4/6 403/4/6 406/4/6
f 404/4/6 396/4/6 407/4/6
f 407/4/6 396/4/6 408/4/6
f 409/4/6 410/4/6 413/4/6
f 413/4/6 410/4/6 414/4/6
f 411/4/6 412/4/6 415/4/6
f 415/4/6 412/4/6 416/4/6
f 417/4/6 418/4/6 419/4/6
f 419/4/6 418/4/6 420/4/6
f 421/4/6 422/4/6 423/4/6
f 423/4/6 422/4/6 424/4/6
f 425/4/6 426/4/6 427/4/6
f 427/4/6 426/4/6 428/4/6
