# MagicaVoxel @ Ephtracy

# group
g boompje

# material
mtllib boompje.mtl
usemtl palette

# normals
vn -1 0 0
vn 1 0 0
vn 0 0 1
vn 0 0 -1
vn 0 -1 0
vn 0 1 0

# texcoords
vt 0.365234 0.5
vt 0.478516 0.5
vt 0.482422 0.5
vt 0.646484 0.5

# verts
v -4 11 4
v -4 11 1
v -4 11 -1
v -4 11 -2
v -4 11 -3
v -4 12 5
v -4 12 4
v -4 12 -1
v -4 12 -2
v -4 12 -3
v -4 12 -4
v -4 13 5
v -4 13 3
v -4 13 2
v -4 13 1
v -4 13 -0
v -4 13 -2
v -4 13 -3
v -4 13 -4
v -4 14 5
v -4 14 4
v -4 14 3
v -4 14 2
v -4 14 1
v -4 14 -0
v -4 14 -2
v -4 14 -3
v -4 15 5
v -4 15 4
v -4 15 2
v -4 15 1
v -4 15 -2
v -4 15 -4
v -4 16 5
v -4 16 4
v -4 16 3
v -4 16 2
v -4 16 1
v -4 16 -0
v -4 16 -1
v -4 16 -3
v -4 16 -4
v -4 17 4
v -4 17 3
v -4 17 2
v -4 17 -0
v -4 17 -1
v -4 17 -2
v -4 17 -3
v -3 11 5
v -3 11 4
v -3 11 -3
v -3 11 -4
v -3 12 5
v -3 12 4
v -3 12 -3
v -3 12 -4
v -3 16 5
v -3 16 4
v -3 16 -3
v -3 16 -4
v -3 17 5
v -3 17 4
v -3 17 -3
v -3 17 -4
v 0 0 1
v 0 0 -0
v 0 11 1
v 0 11 -0
v 1 0 1
v 1 0 -0
v 1 11 1
v 1 11 -0
v 4 11 5
v 4 11 4
v 4 11 -3
v 4 11 -4
v 4 12 5
v 4 12 4
v 4 12 -3
v 4 12 -4
v 4 16 5
v 4 16 4
v 4 16 -3
v 4 16 -4
v 4 17 5
v 4 17 4
v 4 17 -3
v 4 17 -4
v 5 11 4
v 5 11 3
v 5 11 2
v 5 11 1
v 5 11 -0
v 5 11 -3
v 5 12 5
v 5 12 4
v 5 12 3
v 5 12 2
v 5 12 1
v 5 12 -0
v 5 12 -1
v 5 12 -2
v 5 12 -3
v 5 12 -4
v 5 13 1
v 5 13 -0
v 5 13 -1
v 5 13 -2
v 5 13 -3
v 5 13 -4
v 5 14 5
v 5 14 4
v 5 14 2
v 5 14 1
v 5 14 -1
v 5 14 -2
v 5 14 -3
v 5 14 -4
v 5 15 5
v 5 15 4
v 5 15 2
v 5 15 1
v 5 15 -0
v 5 15 -1
v 5 15 -2
v 5 15 -4
v 5 16 5
v 5 16 4
v 5 16 2
v 5 16 1
v 5 16 -0
v 5 16 -1
v 5 16 -3
v 5 16 -4
v 5 17 4
v 5 17 2
v 5 17 1
v 5 17 -2
v 5 17 -3
v -4 12 5
v -4 13 5
v -4 14 5
v -4 15 5
v -4 16 5
v -3 11 5
v -3 12 5
v -3 14 5
v -3 15 5
v -3 16 5
v -3 17 5
v -2 11 5
v -2 12 5
v -2 13 5
v -1 11 5
v -1 12 5
v -1 14 5
v -1 15 5
v -1 17 5
v 0 12 5
v 0 13 5
v 0 14 5
v 0 15 5
v 0 16 5
v 1 11 5
v 1 12 5
v 1 13 5
v 1 15 5
v 1 16 5
v 2 11 5
v 2 12 5
v 2 14 5
v 2 16 5
v 2 17 5
v 3 16 5
v 3 17 5
v 4 11 5
v 4 12 5
v 4 14 5
v 4 15 5
v 4 16 5
v 4 17 5
v 5 12 5
v 5 14 5
v 5 15 5
v 5 16 5
v -4 11 4
v -4 12 4
v -4 16 4
v -4 17 4
v -3 11 4
v -3 12 4
v -3 16 4
v -3 17 4
v 4 11 4
v 4 12 4
v 4 16 4
v 4 17 4
v 5 11 4
v 5 12 4
v 5 16 4
v 5 17 4
v 0 0 1
v 0 11 1
v 1 0 1
v 1 11 1
v 0 0 -0
v 0 11 -0
v 1 0 -0
v 1 11 -0
v -4 11 -3
v -4 12 -3
v -4 16 -3
v -4 17 -3
v -3 11 -3
v -3 12 -3
v -3 16 -3
v -3 17 -3
v 4 11 -3
v 4 12 -3
v 4 16 -3
v 4 17 -3
v 5 11 -3
v 5 12 -3
v 5 16 -3
v 5 17 -3
v -4 12 -4
v -4 13 -4
v -4 15 -4
v -4 16 -4
v -3 11 -4
v -3 12 -4
v -3 16 -4
v -3 17 -4
v -2 14 -4
v -2 15 -4
v -2 17 -4
v -1 14 -4
v -1 15 -4
v -1 16 -4
v -1 17 -4
v 0 11 -4
v 0 13 -4
v 0 14 -4
v 0 15 -4
v 0 16 -4
v 0 17 -4
v 1 13 -4
v 1 14 -4
v 1 15 -4
v 1 16 -4
v 2 11 -4
v 2 12 -4
v 2 16 -4
v 2 17 -4
v 3 11 -4
v 3 12 -4
v 3 14 -4
v 3 15 -4
v 3 16 -4
v 3 17 -4
v 4 11 -4
v 4 12 -4
v 4 13 -4
v 4 14 -4
v 4 15 -4
v 4 16 -4
v 4 17 -4
v 5 12 -4
v 5 13 -4
v 5 14 -4
v 5 15 -4
v 5 16 -4
v 0 0 1
v 1 0 1
v 0 0 -0
v 1 0 -0
v -3 11 5
v -2 11 5
v -1 11 5
v 1 11 5
v 2 11 5
v 4 11 5
v -4 11 4
v -3 11 4
v -2 11 4
v -1 11 4
v 1 11 4
v 2 11 4
v 4 11 4
v 5 11 4
v 4 11 3
v 5 11 3
v 4 11 2
v 5 11 2
v -4 11 1
v -3 11 1
v 0 11 1
v 1 11 1
v 4 11 1
v 5 11 1
v 0 11 -0
v 1 11 -0
v 4 11 -0
v 5 11 -0
v -4 11 -1
v -3 11 -1
v -4 11 -2
v -3 11 -2
v -4 11 -3
v -3 11 -3
v 0 11 -3
v 2 11 -3
v 3 11 -3
v 4 11 -3
v 5 11 -3
v -3 11 -4
v 0 11 -4
v 2 11 -4
v 3 11 -4
v 4 11 -4
v -4 12 5
v -3 12 5
v 4 12 5
v 5 12 5
v -4 12 4
v -3 12 4
v 4 12 4
v 5 12 4
v -4 12 -3
v -3 12 -3
v 4 12 -3
v 5 12 -3
v -4 12 -4
v -3 12 -4
v 4 12 -4
v 5 12 -4
v -4 16 5
v -3 16 5
v 4 16 5
v 5 16 5
v -4 16 4
v -3 16 4
v 4 16 4
v 5 16 4
v -4 16 -3
v -3 16 -3
v 4 16 -3
v 5 16 -3
v -4 16 -4
v -3 16 -4
v 4 16 -4
v 5 16 -4
v -3 17 5
v -1 17 5
v 2 17 5
v 3 17 5
v 4 17 5
v -4 17 4
v -3 17 4
v -1 17 4
v 0 17 4
v 1 17 4
v 2 17 4
v 3 17 4
v 4 17 4
v 5 17 4
v -4 17 3
v -3 17 3
v -1 17 3
v 0 17 3
v 1 17 3
v 2 17 3
v 3 17 3
v 4 17 3
v -4 17 2
v -3 17 2
v -1 17 2
v 0 17 2
v 1 17 2
v 2 17 2
v 3 17 2
v 4 17 2
v 5 17 2
v -2 17 1
v -1 17 1
v 0 17 1
v 1 17 1
v 2 17 1
v 3 17 1
v 4 17 1
v 5 17 1
v -4 17 -0
v -3 17 -0
v -2 17 -0
v -1 17 -0
v 1 17 -0
v 2 17 -0
v 3 17 -0
v -4 17 -1
v -3 17 -1
v -2 17 -1
v 1 17 -1
v 2 17 -1
v 3 17 -1
v 4 17 -1
v -4 17 -2
v -3 17 -2
v -2 17 -2
v -1 17 -2
v 1 17 -2
v 2 17 -2
v 3 17 -2
v 4 17 -2
v 5 17 -2
v -4 17 -3
v -3 17 -3
v -1 17 -3
v 0 17 -3
v 2 17 -3
v 3 17 -3
v 4 17 -3
v 5 17 -3
v -3 17 -4
v -2 17 -4
v -1 17 -4
v 0 17 -4
v 2 17 -4
v 3 17 -4
v 4 17 -4

# faces
f 7/3/1 2/3/1 1/3/1
f 8/4/1 3/4/1 2/4/1
f 8/3/1 4/3/1 3/3/1
f 9/4/1 5/4/1 4/4/1
f 9/3/1 4/3/1 8/3/1
f 10/4/1 5/4/1 9/4/1
f 12/3/1 7/3/1 6/3/1
f 13/3/1 2/3/1 7/3/1
f 13/3/1 7/3/1 12/3/1
f 14/3/1 2/3/1 13/3/1
f 15/4/1 8/4/1 2/4/1
f 15/3/1 2/3/1 14/3/1
f 15/4/1 9/4/1 8/4/1
f 15/4/1 10/4/1 9/4/1
f 16/4/1 10/4/1 15/4/1
f 17/4/1 10/4/1 16/4/1
f 18/3/1 11/3/1 10/3/1
f 18/4/1 10/4/1 17/4/1
f 19/3/1 11/3/1 18/3/1
f 20/4/1 13/4/1 12/4/1
f 21/4/1 13/4/1 20/4/1
f 22/2/1 14/2/1 13/2/1
f 22/4/1 13/4/1 21/4/1
f 23/4/1 15/4/1 14/4/1
f 23/2/1 14/2/1 22/2/1
f 24/3/1 16/3/1 15/3/1
f 24/4/1 15/4/1 23/4/1
f 25/4/1 17/4/1 16/4/1
f 25/3/1 16/3/1 24/3/1
f 26/2/1 18/2/1 17/2/1
f 26/4/1 17/4/1 25/4/1
f 27/4/1 19/4/1 18/4/1
f 27/2/1 18/2/1 26/2/1
f 28/2/1 21/2/1 20/2/1
f 29/4/1 24/4/1 23/4/1
f 29/2/1 21/2/1 28/2/1
f 29/4/1 22/4/1 21/4/1
f 29/4/1 27/4/1 26/4/1
f 29/4/1 23/4/1 22/4/1
f 29/4/1 26/4/1 25/4/1
f 29/4/1 25/4/1 24/4/1
f 30/4/1 27/4/1 29/4/1
f 31/4/1 27/4/1 30/4/1
f 32/4/1 27/4/1 31/4/1
f 33/4/1 19/4/1 27/4/1
f 33/4/1 27/4/1 32/4/1
f 34/3/1 29/3/1 28/3/1
f 35/4/1 30/4/1 29/4/1
f 35/3/1 29/3/1 34/3/1
f 36/4/1 30/4/1 35/4/1
f 37/2/1 31/2/1 30/2/1
f 37/4/1 30/4/1 36/4/1
f 38/4/1 32/4/1 31/4/1
f 38/2/1 31/2/1 37/2/1
f 39/4/1 32/4/1 38/4/1
f 40/4/1 32/4/1 39/4/1
f 41/3/1 33/3/1 32/3/1
f 42/3/1 33/3/1 41/3/1
f 43/4/1 36/4/1 35/4/1
f 44/2/1 37/2/1 36/2/1
f 44/4/1 36/4/1 43/4/1
f 45/4/1 38/4/1 37/4/1
f 45/2/1 37/2/1 44/2/1
f 45/4/1 39/4/1 38/4/1
f 46/3/1 40/3/1 39/3/1
f 46/4/1 39/4/1 45/4/1
f 47/4/1 32/4/1 40/4/1
f 47/3/1 40/3/1 46/3/1
f 48/3/1 41/3/1 32/3/1
f 48/4/1 32/4/1 47/4/1
f 49/3/1 41/3/1 48/3/1
f 54/3/1 51/3/1 50/3/1
f 55/3/1 51/3/1 54/3/1
f 56/3/1 53/3/1 52/3/1
f 57/3/1 53/3/1 56/3/1
f 62/3/1 59/3/1 58/3/1
f 63/3/1 59/3/1 62/3/1
f 64/3/1 61/3/1 60/3/1
f 65/3/1 61/3/1 64/3/1
f 68/1/1 67/1/1 66/1/1
f 69/1/1 67/1/1 68/1/1
f 70/1/2 71/1/2 72/1/2
f 72/1/2 71/1/2 73/1/2
f 74/4/2 75/4/2 78/4/2
f 78/4/2 75/4/2 79/4/2
f 76/4/2 77/4/2 80/4/2
f 80/4/2 77/4/2 81/4/2
f 82/4/2 83/4/2 86/4/2
f 86/4/2 83/4/2 87/4/2
f 84/4/2 85/4/2 88/4/2
f 88/4/2 85/4/2 89/4/2
f 90/3/2 91/3/2 97/3/2
f 91/4/2 92/4/2 98/4/2
f 97/3/2 91/3/2 98/3/2
f 92/2/2 93/2/2 99/2/2
f 98/4/2 92/4/2 99/4/2
f 93/4/2 94/4/2 100/4/2
f 99/2/2 93/2/2 100/2/2
f 94/3/2 95/3/2 101/3/2
f 100/4/2 94/4/2 101/4/2
f 101/3/2 95/3/2 102/3/2
f 102/3/2 95/3/2 103/3/2
f 103/3/2 95/3/2 104/3/2
f 99/4/2 100/4/2 106/4/2
f 97/4/2 98/4/2 106/4/2
f 98/4/2 99/4/2 106/4/2
f 100/3/2 101/3/2 106/3/2
f 101/4/2 102/4/2 107/4/2
f 106/3/2 101/3/2 107/3/2
f 102/2/2 103/2/2 108/2/2
f 107/4/2 102/4/2 108/4/2
f 104/4/2 105/4/2 109/4/2
f 108/2/2 103/2/2 109/2/2
f 103/4/2 104/4/2 109/4/2
f 109/4/2 105/4/2 110/4/2
f 110/4/2 105/4/2 111/4/2
f 96/3/2 97/3/2 112/3/2
f 107/4/2 108/4/2 113/4/2
f 112/3/2 97/3/2 113/3/2
f 97/4/2 106/4/2 113/4/2
f 106/4/2 107/4/2 113/4/2
f 109/4/2 110/4/2 113/4/2
f 108/4/2 109/4/2 113/4/2
f 113/4/2 110/4/2 114/4/2
f 114/4/2 110/4/2 115/4/2
f 115/4/2 110/4/2 116/4/2
f 116/4/2 110/4/2 117/4/2
f 110/2/2 111/2/2 118/2/2
f 117/4/2 110/4/2 118/4/2
f 118/2/2 111/2/2 119/2/2
f 112/2/2 113/2/2 120/2/2
f 113/3/2 114/3/2 121/3/2
f 120/2/2 113/2/2 121/2/2
f 114/2/2 115/2/2 122/2/2
f 121/3/2 114/3/2 122/3/2
f 115/4/2 116/4/2 123/4/2
f 122/2/2 115/2/2 123/2/2
f 123/4/2 116/4/2 124/4/2
f 116/3/2 117/3/2 125/3/2
f 124/4/2 116/4/2 125/4/2
f 117/4/2 118/4/2 126/4/2
f 125/3/2 117/3/2 126/3/2
f 118/4/2 119/4/2 126/4/2
f 126/4/2 119/4/2 127/4/2
f 120/4/2 121/4/2 128/4/2
f 121/3/2 122/3/2 129/3/2
f 128/4/2 121/4/2 129/4/2
f 123/4/2 124/4/2 130/4/2
f 129/3/2 122/3/2 130/3/2
f 122/4/2 123/4/2 130/4/2
f 130/4/2 124/4/2 131/4/2
f 124/2/2 125/2/2 132/2/2
f 131/4/2 124/4/2 132/4/2
f 125/4/2 126/4/2 133/4/2
f 132/2/2 125/2/2 133/2/2
f 126/3/2 127/3/2 134/3/2
f 134/3/2 127/3/2 135/3/2
f 129/4/2 130/4/2 136/4/2
f 130/3/2 131/3/2 137/3/2
f 136/4/2 130/4/2 137/4/2
f 131/4/2 132/4/2 138/4/2
f 137/3/2 131/3/2 138/3/2
f 132/4/2 133/4/2 138/4/2
f 133/4/2 126/4/2 139/4/2
f 138/4/2 133/4/2 139/4/2
f 126/3/2 134/3/2 139/3/2
f 139/3/2 134/3/2 140/3/2
f 147/3/3 142/3/3 141/3/3
f 148/4/3 143/4/3 142/4/3
f 148/2/3 144/2/3 143/2/3
f 149/3/3 145/3/3 144/3/3
f 149/2/3 144/2/3 148/2/3
f 150/3/3 145/3/3 149/3/3
f 152/3/3 147/3/3 146/3/3
f 153/3/3 142/3/3 147/3/3
f 153/3/3 147/3/3 152/3/3
f 154/4/3 148/4/3 142/4/3
f 154/3/3 142/3/3 153/3/3
f 154/4/3 149/4/3 148/4/3
f 155/2/3 153/2/3 152/2/3
f 156/4/3 154/4/3 153/4/3
f 156/2/3 153/2/3 155/2/3
f 157/4/3 149/4/3 154/4/3
f 157/4/3 154/4/3 156/4/3
f 158/3/3 151/3/3 150/3/3
f 158/4/3 149/4/3 157/4/3
f 158/3/3 150/3/3 149/3/3
f 159/3/3 151/3/3 158/3/3
f 160/4/3 156/4/3 155/4/3
f 160/4/3 157/4/3 156/4/3
f 161/4/3 157/4/3 160/4/3
f 162/3/3 158/3/3 157/3/3
f 162/4/3 157/4/3 161/4/3
f 163/4/3 159/4/3 158/4/3
f 163/3/3 158/3/3 162/3/3
f 164/4/3 159/4/3 163/4/3
f 165/4/3 160/4/3 155/4/3
f 166/2/3 161/2/3 160/2/3
f 166/4/3 160/4/3 165/4/3
f 167/4/3 162/4/3 161/4/3
f 167/2/3 161/2/3 166/2/3
f 167/4/3 163/4/3 162/4/3
f 168/2/3 164/2/3 163/2/3
f 168/4/3 163/4/3 167/4/3
f 169/4/3 159/4/3 164/4/3
f 169/2/3 164/2/3 168/2/3
f 170/3/3 166/3/3 165/3/3
f 171/4/3 168/4/3 167/4/3
f 171/3/3 166/3/3 170/3/3
f 171/4/3 167/4/3 166/4/3
f 171/4/3 169/4/3 168/4/3
f 172/4/3 169/4/3 171/4/3
f 173/4/3 159/4/3 169/4/3
f 173/4/3 169/4/3 172/4/3
f 174/4/3 159/4/3 173/4/3
f 175/4/3 173/4/3 172/4/3
f 175/3/3 174/3/3 173/3/3
f 176/3/3 174/3/3 175/3/3
f 177/4/3 171/4/3 170/4/3
f 178/3/3 172/3/3 171/3/3
f 178/4/3 171/4/3 177/4/3
f 179/4/3 175/4/3 172/4/3
f 179/3/3 172/3/3 178/3/3
f 179/4/3 176/4/3 175/4/3
f 180/4/3 176/4/3 179/4/3
f 181/4/3 176/4/3 180/4/3
f 182/4/3 176/4/3 181/4/3
f 183/3/3 179/3/3 178/3/3
f 184/2/3 180/2/3 179/2/3
f 184/3/3 179/3/3 183/3/3
f 185/4/3 181/4/3 180/4/3
f 185/2/3 180/2/3 184/2/3
f 186/4/3 181/4/3 185/4/3
f 191/3/3 188/3/3 187/3/3
f 192/3/3 188/3/3 191/3/3
f 193/4/3 190/4/3 189/4/3
f 194/4/3 190/4/3 193/4/3
f 199/3/3 196/3/3 195/3/3
f 200/3/3 196/3/3 199/3/3
f 201/4/3 198/4/3 197/4/3
f 202/4/3 198/4/3 201/4/3
f 205/1/3 204/1/3 203/1/3
f 206/1/3 204/1/3 205/1/3
f 207/1/4 208/1/4 209/1/4
f 209/1/4 208/1/4 210/1/4
f 211/4/4 212/4/4 215/4/4
f 215/4/4 212/4/4 216/4/4
f 213/3/4 214/3/4 217/3/4
f 217/3/4 214/3/4 218/3/4
f 219/3/4 220/3/4 223/3/4
f 223/3/4 220/3/4 224/3/4
f 221/3/4 222/3/4 225/3/4
f 225/3/4 222/3/4 226/3/4
f 227/3/4 228/3/4 232/3/4
f 229/3/4 230/3/4 233/3/4
f 228/4/4 229/4/4 235/4/4
f 233/3/4 234/3/4 236/3/4
f 235/4/4 229/4/4 236/4/4
f 229/3/4 233/3/4 236/3/4
f 236/3/4 234/3/4 237/3/4
f 228/4/4 235/4/4 238/4/4
f 235/2/4 236/2/4 238/2/4
f 236/4/4 237/4/4 239/4/4
f 238/2/4 236/2/4 239/2/4
f 239/4/4 237/4/4 240/4/4
f 240/4/4 237/4/4 241/4/4
f 231/3/4 232/3/4 242/3/4
f 232/3/4 228/3/4 243/3/4
f 242/3/4 232/3/4 243/3/4
f 228/4/4 238/4/4 243/4/4
f 238/4/4 239/4/4 243/4/4
f 239/4/4 240/4/4 243/4/4
f 243/4/4 240/4/4 244/4/4
f 244/4/4 240/4/4 245/4/4
f 240/3/4 241/3/4 246/3/4
f 245/4/4 240/4/4 246/4/4
f 246/3/4 241/3/4 247/3/4
f 242/4/4 243/4/4 248/4/4
f 243/3/4 244/3/4 248/3/4
f 244/4/4 245/4/4 249/4/4
f 248/3/4 244/3/4 249/3/4
f 245/2/4 246/2/4 250/2/4
f 249/4/4 245/4/4 250/4/4
f 246/4/4 247/4/4 251/4/4
f 250/2/4 246/2/4 251/2/4
f 242/4/4 248/4/4 252/4/4
f 249/4/4 250/4/4 252/4/4
f 250/4/4 251/4/4 252/4/4
f 248/4/4 249/4/4 252/4/4
f 252/4/4 251/4/4 253/4/4
f 251/4/4 247/4/4 254/4/4
f 253/4/4 251/4/4 254/4/4
f 254/4/4 247/4/4 255/4/4
f 252/3/4 253/3/4 256/3/4
f 253/4/4 254/4/4 257/4/4
f 256/3/4 253/3/4 257/3/4
f 257/4/4 254/4/4 258/4/4
f 258/4/4 254/4/4 259/4/4
f 254/2/4 255/2/4 260/2/4
f 259/4/4 254/4/4 260/4/4
f 260/2/4 255/2/4 261/2/4
f 256/4/4 257/4/4 262/4/4
f 257/4/4 258/4/4 262/4/4
f 262/4/4 258/4/4 263/4/4
f 263/4/4 258/4/4 264/4/4
f 258/3/4 259/3/4 265/3/4
f 264/4/4 258/4/4 265/4/4
f 260/4/4 261/4/4 266/4/4
f 265/3/4 259/3/4 266/3/4
f 259/4/4 260/4/4 266/4/4
f 266/4/4 261/4/4 267/4/4
f 267/4/4 261/4/4 268/4/4
f 263/4/4 264/4/4 269/4/4
f 264/2/4 265/2/4 270/2/4
f 269/4/4 264/4/4 270/4/4
f 265/4/4 266/4/4 271/4/4
f 270/2/4 265/2/4 271/2/4
f 266/3/4 267/3/4 272/3/4
f 271/4/4 266/4/4 272/4/4
f 272/3/4 267/3/4 273/3/4
f 276/1/5 275/1/5 274/1/5
f 277/1/5 275/1/5 276/1/5
f 285/3/5 279/3/5 278/3/5
f 286/2/5 280/2/5 279/2/5
f 286/3/5 279/3/5 285/3/5
f 287/4/5 281/4/5 280/4/5
f 287/2/5 280/2/5 286/2/5
f 288/3/5 282/3/5 281/3/5
f 288/4/5 281/4/5 287/4/5
f 289/4/5 283/4/5 282/4/5
f 289/3/5 282/3/5 288/3/5
f 290/4/5 283/4/5 289/4/5
f 292/4/5 288/4/5 287/4/5
f 292/3/5 291/3/5 290/3/5
f 292/4/5 290/4/5 289/4/5
f 292/4/5 289/4/5 288/4/5
f 292/4/5 286/4/5 285/4/5
f 292/4/5 287/4/5 286/4/5
f 293/3/5 291/3/5 292/3/5
f 294/4/5 292/4/5 285/4/5
f 294/4/5 293/4/5 292/4/5
f 295/4/5 293/4/5 294/4/5
f 296/3/5 285/3/5 284/3/5
f 297/4/5 294/4/5 285/4/5
f 297/3/5 285/3/5 296/3/5
f 298/4/5 294/4/5 297/4/5
f 299/4/5 294/4/5 298/4/5
f 300/2/5 295/2/5 294/2/5
f 300/4/5 294/4/5 299/4/5
f 301/2/5 295/2/5 300/2/5
f 302/4/5 297/4/5 296/4/5
f 302/4/5 298/4/5 297/4/5
f 303/4/5 301/4/5 300/4/5
f 303/4/5 300/4/5 299/4/5
f 304/4/5 301/4/5 303/4/5
f 305/4/5 301/4/5 304/4/5
f 306/4/5 302/4/5 296/4/5
f 306/4/5 303/4/5 302/4/5
f 306/4/5 304/4/5 303/4/5
f 307/4/5 304/4/5 306/4/5
f 308/3/5 307/3/5 306/3/5
f 309/4/5 304/4/5 307/4/5
f 309/3/5 307/3/5 308/3/5
f 310/4/5 309/4/5 308/4/5
f 311/4/5 304/4/5 309/4/5
f 311/4/5 309/4/5 310/4/5
f 312/4/5 304/4/5 311/4/5
f 313/4/5 304/4/5 312/4/5
f 314/4/5 304/4/5 313/4/5
f 315/3/5 305/3/5 304/3/5
f 315/4/5 304/4/5 314/4/5
f 316/3/5 305/3/5 315/3/5
f 317/3/5 312/3/5 311/3/5
f 318/4/5 313/4/5 312/4/5
f 318/3/5 312/3/5 317/3/5
f 319/3/5 314/3/5 313/3/5
f 319/4/5 313/4/5 318/4/5
f 320/4/5 315/4/5 314/4/5
f 320/3/5 314/3/5 319/3/5
f 321/4/5 315/4/5 320/4/5
f 326/3/5 323/3/5 322/3/5
f 327/3/5 323/3/5 326/3/5
f 328/3/5 325/3/5 324/3/5
f 329/3/5 325/3/5 328/3/5
f 334/3/5 331/3/5 330/3/5
f 335/3/5 331/3/5 334/3/5
f 336/4/5 333/4/5 332/4/5
f 337/4/5 333/4/5 336/4/5
f 338/3/6 339/3/6 342/3/6
f 342/3/6 339/3/6 343/3/6
f 340/4/6 341/4/6 344/4/6
f 344/4/6 341/4/6 345/4/6
f 346/3/6 347/3/6 350/3/6
f 350/3/6 347/3/6 351/3/6
f 348/3/6 349/3/6 352/3/6
f 352/3/6 349/3/6 353/3/6
f 354/3/6 355/3/6 360/3/6
f 355/4/6 356/4/6 361/4/6
f 360/3/6 355/3/6 361/3/6
f 361/4/6 356/4/6 362/4/6
f 362/4/6 356/4/6 363/4/6
f 356/3/6 357/3/6 364/3/6
f 363/4/6 356/4/6 364/4/6
f 357/4/6 358/4/6 365/4/6
f 364/3/6 357/3/6 365/3/6
f 365/4/6 358/4/6 366/4/6
f 359/4/6 360/4/6 368/4/6
f 360/4/6 361/4/6 368/4/6
f 368/4/6 361/4/6 369/4/6
f 361/3/6 362/3/6 370/3/6
f 369/4/6 361/4/6 370/4/6
f 362/4/6 363/4/6 371/4/6
f 370/3/6 362/3/6 371/3/6
f 363/2/6 364/2/6 372/2/6
f 371/4/6 363/4/6 372/4/6
f 366/4/6 367/4/6 373/4/6
f 372/2/6 364/2/6 373/2/6
f 365/4/6 366/4/6 373/4/6
f 364/4/6 365/4/6 373/4/6
f 373/4/6 367/4/6 374/4/6
f 374/4/6 367/4/6 375/4/6
f 368/2/6 369/2/6 376/2/6
f 370/4/6 371/4/6 377/4/6
f 376/2/6 369/2/6 377/2/6
f 371/4/6 372/4/6 377/4/6
f 369/4/6 370/4/6 377/4/6
f 373/4/6 374/4/6 377/4/6
f 372/4/6 373/4/6 377/4/6
f 377/4/6 374/4/6 378/4/6
f 378/4/6 374/4/6 379/4/6
f 379/4/6 374/4/6 380/4/6
f 380/4/6 374/4/6 381/4/6
f 374/2/6 375/2/6 382/2/6
f 381/4/6 374/4/6 382/4/6
f 375/4/6 367/4/6 383/4/6
f 382/2/6 375/2/6 383/2/6
f 383/4/6 367/4/6 384/4/6
f 376/4/6 377/4/6 385/4/6
f 377/4/6 378/4/6 385/4/6
f 378/2/6 379/2/6 386/2/6
f 385/4/6 378/4/6 386/4/6
f 379/4/6 380/4/6 387/4/6
f 386/2/6 379/2/6 387/2/6
f 380/3/6 381/3/6 388/3/6
f 387/4/6 380/4/6 388/4/6
f 381/4/6 382/4/6 389/4/6
f 388/3/6 381/3/6 389/3/6
f 382/4/6 383/4/6 389/4/6
f 389/4/6 383/4/6 390/4/6
f 383/3/6 384/3/6 391/3/6
f 390/4/6 383/4/6 391/4/6
f 391/3/6 384/3/6 392/3/6
f 376/4/6 385/4/6 393/4/6
f 393/4/6 385/4/6 394/4/6
f 385/3/6 386/3/6 395/3/6
f 394/4/6 385/4/6 395/4/6
f 386/4/6 387/4/6 396/4/6
f 395/3/6 386/3/6 396/3/6
f 387/4/6 388/4/6 396/4/6
f 388/4/6 389/4/6 396/4/6
f 396/4/6 389/4/6 397/4/6
f 389/2/6 390/2/6 398/2/6
f 397/4/6 389/4/6 398/4/6
f 391/4/6 392/4/6 399/4/6
f 398/2/6 390/2/6 399/2/6
f 390/4/6 391/4/6 399/4/6
f 393/3/6 394/3/6 400/3/6
f 394/4/6 395/4/6 401/4/6
f 400/3/6 394/3/6 401/3/6
f 395/4/6 396/4/6 401/4/6
f 401/4/6 396/4/6 402/4/6
f 396/3/6 397/3/6 403/3/6
f 397/4/6 398/4/6 403/4/6
f 398/4/6 399/4/6 403/4/6
f 403/4/6 399/4/6 404/4/6
f 399/4/6 392/4/6 405/4/6
f 404/4/6 399/4/6 405/4/6
f 405/4/6 392/4/6 406/4/6
f 400/4/6 401/4/6 407/4/6
f 401/2/6 402/2/6 408/2/6
f 407/4/6 401/4/6 408/4/6
f 402/4/6 396/4/6 409/4/6
f 408/2/6 402/2/6 409/2/6
f 396/3/6 403/3/6 410/3/6
f 409/4/6 396/4/6 410/4/6
f 403/2/6 404/2/6 411/2/6
f 410/3/6 403/3/6 411/3/6
f 404/4/6 405/4/6 412/4/6
f 411/2/6 404/2/6 412/2/6
f 405/3/6 406/3/6 413/3/6
f 412/4/6 405/4/6 413/4/6
f 406/4/6 392/4/6 414/4/6
f 413/3/6 406/3/6 414/3/6
f 414/4/6 392/4/6 415/4/6
f 407/3/6 408/3/6 416/3/6
f 408/3/6 409/3/6 416/3/6
f 416/3/6 409/3/6 417/3/6
f 409/4/6 410/4/6 418/4/6
f 412/4/6 413/4/6 418/4/6
f 410/4/6 411/4/6 418/4/6
f 411/4/6 412/4/6 418/4/6
f 413/4/6 414/4/6 418/4/6
f 418/4/6 414/4/6 419/4/6
f 419/4/6 414/4/6 420/4/6
f 420/4/6 414/4/6 421/4/6
f 414/3/6 415/3/6 422/3/6
f 421/4/6 414/4/6 422/4/6
f 422/3/6 415/3/6 423/3/6
f 417/3/6 409/3/6 424/3/6
f 409/4/6 418/4/6 425/4/6
f 424/3/6 409/3/6 425/3/6
f 418/3/6 419/3/6 426/3/6
f 425/4/6 418/4/6 426/4/6
f 419/4/6 420/4/6 427/4/6
f 426/3/6 419/3/6 427/3/6
f 420/2/6 421/2/6 428/2/6
f 427/4/6 420/4/6 428/4/6
f 421/4/6 422/4/6 429/4/6
f 428/2/6 421/2/6 429/2/6
f 429/4/6 422/4/6 430/4/6
