# MagicaVoxel @ Ephtracy

# group
g catnip

# material
mtllib catnip.mtl
usemtl palette

# normals
vn -1 0 0
vn 1 0 0
vn 0 0 1
vn 0 0 -1
vn 0 -1 0
vn 0 1 0

# texcoords
vt 0.470703 0.5
vt 0.712891 0.5
vt 0.763672 0.5

# verts
v -4 5 -0
v -4 5 -1
v -4 6 -0
v -4 6 -1
v -3 4 -0
v -3 4 -1
v -3 5 -0
v -3 5 -1
v -2 2 -0
v -2 2 -1
v -2 4 -0
v -2 4 -1
v -1 0 -0
v -1 0 -1
v -1 2 -0
v -1 2 -1
v 0 0 1
v 0 0 -0
v 0 0 -2
v 0 0 -3
v 0 2 -0
v 0 3 2
v 0 3 1
v 0 3 -0
v 0 3 -2
v 0 3 -3
v 0 3 -4
v 0 4 3
v 0 4 2
v 0 4 1
v 0 5 3
v 0 5 2
v 0 5 -3
v 0 5 -4
v 0 5 -5
v 0 6 -4
v 0 6 -5
v 0 6 -6
v 0 7 -5
v 0 7 -6
v 0 7 -7
v 0 8 -6
v 0 8 -7
v 1 0 -1
v 1 0 -2
v 1 2 -1
v 1 2 -2
v 2 2 -1
v 2 2 -2
v 2 4 -1
v 2 4 -2
v 3 4 -1
v 3 4 -2
v 3 5 -1
v 3 5 -2
v 4 5 -1
v 4 5 -2
v 4 6 -1
v 4 6 -2
v -3 5 -0
v -3 5 -1
v -3 6 -0
v -3 6 -1
v -2 4 -0
v -2 4 -1
v -2 5 -0
v -2 5 -1
v -1 2 -0
v -1 2 -1
v -1 4 -0
v -1 4 -1
v 0 0 -0
v 0 0 -1
v 0 2 -0
v 0 2 -1
v 1 0 1
v 1 0 -0
v 1 0 -2
v 1 0 -3
v 1 2 -2
v 1 3 2
v 1 3 1
v 1 3 -0
v 1 3 -2
v 1 3 -3
v 1 3 -4
v 1 4 3
v 1 4 2
v 1 4 1
v 1 5 3
v 1 5 2
v 1 5 -3
v 1 5 -4
v 1 5 -5
v 1 6 -4
v 1 6 -5
v 1 6 -6
v 1 7 -5
v 1 7 -6
v 1 7 -7
v 1 8 -6
v 1 8 -7
v 2 0 -1
v 2 0 -2
v 2 2 -1
v 2 2 -2
v 3 2 -1
v 3 2 -2
v 3 4 -1
v 3 4 -2
v 4 4 -1
v 4 4 -2
v 4 5 -1
v 4 5 -2
v 5 5 -1
v 5 5 -2
v 5 6 -1
v 5 6 -2
v 0 4 3
v 0 5 3
v 1 4 3
v 1 5 3
v 0 3 2
v 0 4 2
v 1 3 2
v 1 4 2
v 0 0 1
v 0 3 1
v 1 0 1
v 1 3 1
v -4 5 -0
v -4 6 -0
v -3 4 -0
v -3 5 -0
v -3 6 -0
v -2 2 -0
v -2 4 -0
v -2 5 -0
v -1 0 -0
v -1 2 -0
v -1 4 -0
v 0 0 -0
v 0 2 -0
v 1 0 -1
v 1 2 -1
v 2 0 -1
v 2 2 -1
v 2 4 -1
v 3 2 -1
v 3 4 -1
v 3 5 -1
v 4 4 -1
v 4 5 -1
v 4 6 -1
v 5 5 -1
v 5 6 -1
v 0 0 -2
v 0 3 -2
v 1 0 -2
v 1 2 -2
v 1 3 -2
v 0 3 -3
v 0 5 -3
v 1 3 -3
v 1 5 -3
v 0 5 -4
v 0 6 -4
v 1 5 -4
v 1 6 -4
v 0 6 -5
v 0 7 -5
v 1 6 -5
v 1 7 -5
v 0 7 -6
v 0 8 -6
v 1 7 -6
v 1 8 -6
v 0 4 2
v 0 5 2
v 1 4 2
v 1 5 2
v 0 3 1
v 0 4 1
v 1 3 1
v 1 4 1
v 0 0 -0
v 0 2 -0
v 0 3 -0
v 1 0 -0
v 1 3 -0
v -4 5 -1
v -4 6 -1
v -3 4 -1
v -3 5 -1
v -3 6 -1
v -2 2 -1
v -2 4 -1
v -2 5 -1
v -1 0 -1
v -1 2 -1
v -1 4 -1
v 0 0 -1
v 0 2 -1
v 1 0 -2
v 1 2 -2
v 2 0 -2
v 2 2 -2
v 2 4 -2
v 3 2 -2
v 3 4 -2
v 3 5 -2
v 4 4 -2
v 4 5 -2
v 4 6 -2
v 5 5 -2
v 5 6 -2
v 0 0 -3
v 0 3 -3
v 1 0 -3
v 1 3 -3
v 0 3 -4
v 0 5 -4
v 1 3 -4
v 1 5 -4
v 0 5 -5
v 0 6 -5
v 1 5 -5
v 1 6 -5
v 0 6 -6
v 0 7 -6
v 1 6 -6
v 1 7 -6
v 0 7 -7
v 0 8 -7
v 1 7 -7
v 1 8 -7
v 0 0 1
v 1 0 1
v -1 0 -0
v 0 0 -0
v 1 0 -0
v -1 0 -1
v 0 0 -1
v 1 0 -1
v 2 0 -1
v 0 0 -2
v 1 0 -2
v 2 0 -2
v 0 0 -3
v 1 0 -3
v -2 2 -0
v -1 2 -0
v -2 2 -1
v -1 2 -1
v 2 2 -1
v 3 2 -1
v 2 2 -2
v 3 2 -2
v 0 3 2
v 1 3 2
v 0 3 1
v 1 3 1
v 0 3 -3
v 1 3 -3
v 0 3 -4
v 1 3 -4
v 0 4 3
v 1 4 3
v 0 4 2
v 1 4 2
v -3 4 -0
v -2 4 -0
v -3 4 -1
v -2 4 -1
v 3 4 -1
v 4 4 -1
v 3 4 -2
v 4 4 -2
v -4 5 -0
v -3 5 -0
v -4 5 -1
v -3 5 -1
v 4 5 -1
v 5 5 -1
v 4 5 -2
v 5 5 -2
v 0 5 -4
v 1 5 -4
v 0 5 -5
v 1 5 -5
v 0 6 -5
v 1 6 -5
v 0 6 -6
v 1 6 -6
v 0 7 -6
v 1 7 -6
v 0 7 -7
v 1 7 -7
v -1 2 -0
v 0 2 -0
v -1 2 -1
v 0 2 -1
v 1 2 -1
v 2 2 -1
v 1 2 -2
v 2 2 -2
v 0 3 1
v 1 3 1
v 0 3 -0
v 1 3 -0
v 0 3 -2
v 1 3 -2
v 0 3 -3
v 1 3 -3
v 0 4 2
v 1 4 2
v 0 4 1
v 1 4 1
v -2 4 -0
v -1 4 -0
v -2 4 -1
v -1 4 -1
v 2 4 -1
v 3 4 -1
v 2 4 -2
v 3 4 -2
v 0 5 3
v 1 5 3
v 0 5 2
v 1 5 2
v -3 5 -0
v -2 5 -0
v -3 5 -1
v -2 5 -1
v 3 5 -1
v 4 5 -1
v 3 5 -2
v 4 5 -2
v 0 5 -3
v 1 5 -3
v 0 5 -4
v 1 5 -4
v -4 6 -0
v -3 6 -0
v -4 6 -1
v -3 6 -1
v 4 6 -1
v 5 6 -1
v 4 6 -2
v 5 6 -2
v 0 6 -4
v 1 6 -4
v 0 6 -5
v 1 6 -5
v 0 7 -5
v 1 7 -5
v 0 7 -6
v 1 7 -6
v 0 8 -6
v 1 8 -6
v 0 8 -7
v 1 8 -7

# faces
f 3/1/1 2/1/1 1/1/1
f 4/1/1 2/1/1 3/1/1
f 7/2/1 6/2/1 5/2/1
f 8/2/1 6/2/1 7/2/1
f 11/2/1 10/2/1 9/2/1
f 12/2/1 10/2/1 11/2/1
f 15/2/1 14/2/1 13/2/1
f 16/2/1 14/2/1 15/2/1
f 21/3/1 18/3/1 17/3/1
f 23/3/1 21/3/1 17/3/1
f 24/3/1 21/3/1 23/3/1
f 25/3/1 20/3/1 19/3/1
f 26/3/1 20/3/1 25/3/1
f 29/3/1 23/3/1 22/3/1
f 30/3/1 23/3/1 29/3/1
f 31/1/1 29/1/1 28/1/1
f 32/1/1 29/1/1 31/1/1
f 33/3/1 27/3/1 26/3/1
f 34/3/1 27/3/1 33/3/1
f 36/3/1 35/3/1 34/3/1
f 37/3/1 35/3/1 36/3/1
f 39/3/1 38/3/1 37/3/1
f 40/3/1 38/3/1 39/3/1
f 42/1/1 41/1/1 40/1/1
f 43/1/1 41/1/1 42/1/1
f 46/2/1 45/2/1 44/2/1
f 47/2/1 45/2/1 46/2/1
f 50/2/1 49/2/1 48/2/1
f 51/2/1 49/2/1 50/2/1
f 54/2/1 53/2/1 52/2/1
f 55/2/1 53/2/1 54/2/1
f 58/1/1 57/1/1 56/1/1
f 59/1/1 57/1/1 58/1/1
f 60/1/2 61/1/2 62/1/2
f 62/1/2 61/1/2 63/1/2
f 64/2/2 65/2/2 66/2/2
f 66/2/2 65/2/2 67/2/2
f 68/2/2 69/2/2 70/2/2
f 70/2/2 69/2/2 71/2/2
f 72/2/2 73/2/2 74/2/2
f 74/2/2 73/2/2 75/2/2
f 78/3/2 79/3/2 80/3/2
f 76/3/2 77/3/2 82/3/2
f 82/3/2 77/3/2 83/3/2
f 80/3/2 79/3/2 84/3/2
f 84/3/2 79/3/2 85/3/2
f 81/3/2 82/3/2 88/3/2
f 88/3/2 82/3/2 89/3/2
f 87/1/2 88/1/2 90/1/2
f 90/1/2 88/1/2 91/1/2
f 85/3/2 86/3/2 92/3/2
f 92/3/2 86/3/2 93/3/2
f 93/3/2 94/3/2 95/3/2
f 95/3/2 94/3/2 96/3/2
f 96/3/2 97/3/2 98/3/2
f 98/3/2 97/3/2 99/3/2
f 99/1/2 100/1/2 101/1/2
f 101/1/2 100/1/2 102/1/2
f 103/2/2 104/2/2 105/2/2
f 105/2/2 104/2/2 106/2/2
f 107/2/2 108/2/2 109/2/2
f 109/2/2 108/2/2 110/2/2
f 111/2/2 112/2/2 113/2/2
f 113/2/2 112/2/2 114/2/2
f 115/1/2 116/1/2 117/1/2
f 117/1/2 116/1/2 118/1/2
f 121/1/3 120/1/3 119/1/3
f 122/1/3 120/1/3 121/1/3
f 125/3/3 124/3/3 123/3/3
f 126/3/3 124/3/3 125/3/3
f 129/3/3 128/3/3 127/3/3
f 130/3/3 128/3/3 129/3/3
f 134/1/3 132/1/3 131/1/3
f 135/1/3 132/1/3 134/1/3
f 137/2/3 134/2/3 133/2/3
f 138/2/3 134/2/3 137/2/3
f 140/2/3 137/2/3 136/2/3
f 141/2/3 137/2/3 140/2/3
f 142/2/3 140/2/3 139/2/3
f 143/2/3 140/2/3 142/2/3
f 146/2/3 145/2/3 144/2/3
f 147/2/3 145/2/3 146/2/3
f 149/2/3 148/2/3 147/2/3
f 150/2/3 148/2/3 149/2/3
f 152/2/3 151/2/3 150/2/3
f 153/2/3 151/2/3 152/2/3
f 155/1/3 154/1/3 153/1/3
f 156/1/3 154/1/3 155/1/3
f 159/3/3 158/3/3 157/3/3
f 160/3/3 158/3/3 159/3/3
f 161/3/3 158/3/3 160/3/3
f 164/3/3 163/3/3 162/3/3
f 165/3/3 163/3/3 164/3/3
f 168/3/3 167/3/3 166/3/3
f 169/3/3 167/3/3 168/3/3
f 172/3/3 171/3/3 170/3/3
f 173/3/3 171/3/3 172/3/3
f 176/1/3 175/1/3 174/1/3
f 177/1/3 175/1/3 176/1/3
f 178/1/4 179/1/4 180/1/4
f 180/1/4 179/1/4 181/1/4
f 182/3/4 183/3/4 184/3/4
f 184/3/4 183/3/4 185/3/4
f 186/3/4 187/3/4 189/3/4
f 187/3/4 188/3/4 189/3/4
f 189/3/4 188/3/4 190/3/4
f 191/1/4 192/1/4 194/1/4
f 194/1/4 192/1/4 195/1/4
f 193/2/4 194/2/4 197/2/4
f 197/2/4 194/2/4 198/2/4
f 196/2/4 197/2/4 200/2/4
f 200/2/4 197/2/4 201/2/4
f 199/2/4 200/2/4 202/2/4
f 202/2/4 200/2/4 203/2/4
f 204/2/4 205/2/4 206/2/4
f 206/2/4 205/2/4 207/2/4
f 207/2/4 208/2/4 209/2/4
f 209/2/4 208/2/4 210/2/4
f 210/2/4 211/2/4 212/2/4
f 212/2/4 211/2/4 213/2/4
f 213/1/4 214/1/4 215/1/4
f 215/1/4 214/1/4 216/1/4
f 217/3/4 218/3/4 219/3/4
f 219/3/4 218/3/4 220/3/4
f 221/3/4 222/3/4 223/3/4
f 223/3/4 222/3/4 224/3/4
f 225/3/4 226/3/4 227/3/4
f 227/3/4 226/3/4 228/3/4
f 229/3/4 230/3/4 231/3/4
f 231/3/4 230/3/4 232/3/4
f 233/1/4 234/1/4 235/1/4
f 235/1/4 234/1/4 236/1/4
f 240/3/5 238/3/5 237/3/5
f 241/3/5 238/3/5 240/3/5
f 242/2/5 240/2/5 239/2/5
f 243/2/5 240/2/5 242/2/5
f 247/2/5 245/2/5 244/2/5
f 248/2/5 245/2/5 247/2/5
f 249/3/5 247/3/5 246/3/5
f 250/3/5 247/3/5 249/3/5
f 253/2/5 252/2/5 251/2/5
f 254/2/5 252/2/5 253/2/5
f 257/2/5 256/2/5 255/2/5
f 258/2/5 256/2/5 257/2/5
f 261/3/5 260/3/5 259/3/5
f 262/3/5 260/3/5 261/3/5
f 265/3/5 264/3/5 263/3/5
f 266/3/5 264/3/5 265/3/5
f 269/1/5 268/1/5 267/1/5
f 270/1/5 268/1/5 269/1/5
f 273/2/5 272/2/5 271/2/5
f 274/2/5 272/2/5 273/2/5
f 277/2/5 276/2/5 275/2/5
f 278/2/5 276/2/5 277/2/5
f 281/1/5 280/1/5 279/1/5
f 282/1/5 280/1/5 281/1/5
f 285/1/5 284/1/5 283/1/5
f 286/1/5 284/1/5 285/1/5
f 289/3/5 288/3/5 287/3/5
f 290/3/5 288/3/5 289/3/5
f 293/3/5 292/3/5 291/3/5
f 294/3/5 292/3/5 293/3/5
f 297/1/5 296/1/5 295/1/5
f 298/1/5 296/1/5 297/1/5
f 299/2/6 300/2/6 301/2/6
f 301/2/6 300/2/6 302/2/6
f 303/2/6 304/2/6 305/2/6
f 305/2/6 304/2/6 306/2/6
f 307/3/6 308/3/6 309/3/6
f 309/3/6 308/3/6 310/3/6
f 311/3/6 312/3/6 313/3/6
f 313/3/6 312/3/6 314/3/6
f 315/3/6 316/3/6 317/3/6
f 317/3/6 316/3/6 318/3/6
f 319/2/6 320/2/6 321/2/6
f 321/2/6 320/2/6 322/2/6
f 323/2/6 324/2/6 325/2/6
f 325/2/6 324/2/6 326/2/6
f 327/1/6 328/1/6 329/1/6
f 329/1/6 328/1/6 330/1/6
f 331/2/6 332/2/6 333/2/6
f 333/2/6 332/2/6 334/2/6
f 335/2/6 336/2/6 337/2/6
f 337/2/6 336/2/6 338/2/6
f 339/3/6 340/3/6 341/3/6
f 341/3/6 340/3/6 342/3/6
f 343/1/6 344/1/6 345/1/6
f 345/1/6 344/1/6 346/1/6
f 347/1/6 348/1/6 349/1/6
f 349/1/6 348/1/6 350/1/6
f 351/3/6 352/3/6 353/3/6
f 353/3/6 352/3/6 354/3/6
f 355/3/6 356/3/6 357/3/6
f 357/3/6 356/3/6 358/3/6
f 359/1/6 360/1/6 361/1/6
f 361/1/6 360/1/6 362/1/6
